<svg width="332" height="204" viewBox="0 0 332 204" fill="none" xmlns="http://www.w3.org/2000/svg">
<path d="M234.553 84.1232C232.393 91.0568 228.95 97.5228 224.403 103.185C220.857 107.564 216.479 111.196 211.52 113.872C206.562 116.548 201.123 118.215 195.516 118.775C190.294 119.307 185.021 119.051 179.875 118.014V118.014C174.968 117.041 170.196 115.477 165.665 113.355V113.355C161.034 111.216 156.742 108.408 152.927 105.022C148.485 101.108 144.906 96.3129 142.416 90.9416C139.926 85.5704 138.58 79.7401 138.463 73.821C138.332 66.9773 139.393 60.163 141.599 53.6834C142.729 50.3039 144.086 47.0044 145.659 43.8074C151.018 32.7571 158.639 22.9567 168.03 15.0424C171.913 11.789 176.152 8.98664 180.667 6.6889C189.04 2.5071 197.79 0.720698 206.042 2.3447C207.244 2.58071 208.431 2.8926 209.594 3.2785C210.78 3.66201 211.94 4.12313 213.066 4.6589C221.449 8.5971 227.864 16.2502 232.178 25.8216C233.479 28.7172 234.571 31.7021 235.446 34.7536C238.618 46.1382 239.436 58.0496 237.852 69.761C237.187 74.638 236.083 79.445 234.553 84.1232Z" fill="#CD8A00"/>
<path d="M199.779 1.74585C201.861 1.74628 203.938 1.94682 205.981 2.3447C207.184 2.58071 208.37 2.89261 209.533 3.2785C210.72 3.66201 211.879 4.12313 213.005 4.6589C221.389 8.5971 227.803 16.2502 232.117 25.8217C233.418 28.7172 234.51 31.7022 235.385 34.7537C238.557 46.1382 239.376 58.0496 237.791 69.761C237.146 74.6361 236.063 79.4431 234.553 84.1233C232.393 91.0568 228.95 97.5228 224.403 103.185C220.857 107.564 216.479 111.196 211.52 113.872C206.562 116.548 201.123 118.215 195.516 118.775C193.79 118.959 192.055 119.05 190.319 119.049C186.813 119.05 183.316 118.71 179.875 118.034V118.034C174.968 117.061 170.196 115.497 165.665 113.376V113.376C161.034 111.236 156.742 108.429 152.927 105.042C148.485 101.128 144.906 96.3332 142.416 90.9619C139.926 85.5907 138.58 79.7604 138.463 73.8413C138.332 66.9976 139.393 60.1833 141.599 53.7037C142.729 50.3242 144.086 47.0247 145.659 43.8277C151.015 32.7701 158.637 22.9626 168.03 15.0424C171.913 11.789 176.152 8.98665 180.667 6.6889C186.583 3.58236 193.139 1.89035 199.82 1.74585H199.779ZM199.82 0.730851C192.98 0.871154 186.268 2.6091 180.22 5.80585C175.635 8.13909 171.328 10.9822 167.38 14.2811C157.867 22.2827 150.136 32.1888 144.685 43.3608C143.106 46.5972 141.749 49.9376 140.625 53.3586C138.384 59.95 137.306 66.8807 137.438 73.8413C137.558 79.8985 138.936 85.8647 141.484 91.3615C144.031 96.8583 147.693 101.766 152.237 105.773C156.128 109.221 160.501 112.083 165.218 114.269V114.269C167.528 115.342 169.901 116.274 172.323 117.06C174.733 117.846 177.187 118.49 179.672 118.988V118.988C183.181 119.667 186.746 120.007 190.319 120.003C192.089 120.005 193.858 119.913 195.618 119.729C201.347 119.165 206.908 117.473 211.981 114.75C217.054 112.028 221.538 108.328 225.175 103.865C229.802 98.1051 233.31 91.5296 235.517 84.4785C237.053 79.7407 238.15 74.872 238.796 69.9335C240.388 58.0825 239.56 46.0315 236.36 34.51C235.466 31.4152 234.357 28.3866 233.041 25.4461C228.392 15.1134 221.612 7.6227 213.431 3.77585C212.267 3.23079 211.071 2.75958 209.848 2.365C208.645 1.95301 207.418 1.61406 206.174 1.35C204.067 0.937646 201.926 0.730294 199.779 0.730851H199.82Z" fill="#231F20"/>
<path d="M166.122 35.586C160.478 43.9902 151.557 47.8776 146.177 44.2743C145.96 44.13 145.753 43.9706 145.558 43.7973C150.947 32.7411 158.604 22.9435 168.03 15.0424C171.877 19.3054 171.217 27.9938 166.122 35.586Z" fill="white"/>
<path d="M178.666 64.2317C181.814 54.6158 179.383 45.1887 173.235 43.1757C167.087 41.1627 159.551 47.3261 156.402 56.9421C153.254 66.558 155.685 75.9851 161.833 77.9981C167.981 80.011 175.517 73.8476 178.666 64.2317Z" fill="white"/>
<path d="M205.981 2.365C205.019 3.41501 203.977 4.38894 202.865 5.27805C194.968 11.5913 185.285 12.6266 181.225 7.57195C181.001 7.29237 180.798 6.99727 180.616 6.6889C189 2.5071 197.749 0.720698 205.981 2.365Z" fill="white"/>
<path d="M232.117 25.8216C226.271 27.4761 218.841 22.056 215.096 13.195C213.934 10.4839 213.228 7.59985 213.005 4.6589C221.389 8.5971 227.803 16.2502 232.117 25.8216Z" fill="white"/>
<path d="M220.813 81.773C223.962 72.157 221.53 62.73 215.383 60.717C209.235 58.704 201.699 64.8674 198.55 74.4833C195.402 84.0993 197.833 93.5264 203.981 95.5393C210.129 97.5523 217.665 91.3889 220.813 81.773Z" fill="white"/>
<path d="M209.643 39.6362C212.779 30.0239 210.34 20.6058 204.195 18.6004C198.049 16.5951 190.525 22.7617 187.388 32.3741C184.251 41.9864 186.69 51.4045 192.836 53.4099C198.981 55.4152 206.506 49.2486 209.643 39.6362Z" fill="white"/>
<path d="M188.259 105.895C186.493 111.285 183.346 115.588 179.855 117.984C174.947 117.011 170.176 115.446 165.645 113.325V113.325C164.234 109.326 164.244 103.997 166.01 98.6174C169.157 88.9953 176.698 82.8342 182.849 84.8439C189 86.8536 191.375 96.3134 188.259 105.895Z" fill="white"/>
<path d="M152.876 105.012C148.434 101.098 144.855 96.3027 142.365 90.9315C139.875 85.5602 138.529 79.73 138.412 73.8109C138.912 73.5863 139.437 73.4227 139.975 73.3237C146.319 72.0549 153.069 79.0787 155.038 89.0054C156.286 95.2578 155.343 101.185 152.876 105.012Z" fill="white"/>
<path d="M224.383 103.185C220.837 107.564 216.458 111.196 211.5 113.872C206.542 116.548 201.102 118.215 195.496 118.775C196.511 114.411 199.911 109.64 205.017 106.159C211.929 101.399 219.795 100.353 224.383 103.185Z" fill="white"/>
<path d="M237.791 69.761C232.868 67.7919 228.91 61.1335 228.29 52.9526C227.651 44.6194 230.676 37.3318 235.395 34.7537C238.564 46.1389 239.379 58.0503 237.791 69.761V69.761Z" fill="white"/>
<path d="M21.2306 137.36C16.9777 137.898 -5.48424 146.495 3.25491 152.382C8.38066 155.823 19.2513 149.337 24.1335 147.53C18.5734 151.793 13.7698 156.96 9.92346 162.816C7.38596 166.683 5.86346 172.966 10.0859 174.996C11.8723 175.839 13.9733 175.372 15.8714 174.813C22.3037 172.939 28.4278 170.135 34.05 166.491C31.5166 168.739 29.7434 171.718 28.975 175.017C33.2992 173.647 37.4274 171.723 41.2565 169.292C38.9327 171.793 37.3954 174.921 36.836 178.289C36.2765 181.656 36.7196 185.114 38.11 188.232L52.7057 177.453C51.6316 180.984 51.9326 184.791 53.5482 188.11C58.9286 185.74 63.9102 182.553 68.3164 178.66C67.6241 179.839 67.2087 181.16 67.1014 182.522C66.9942 183.885 67.1979 185.254 67.6973 186.527L83.785 180.751C82.4336 184.062 81.6677 187.582 81.5216 191.155C86.9346 188.433 92.1061 185.254 96.98 181.655C99.4566 183.035 100.776 185.775 102.197 188.232C103.618 190.688 105.597 193.226 108.419 193.561C111.241 193.895 114.144 190.404 112.317 188.232C115.595 188.232 117.168 192.292 119.929 194.058C124.162 196.758 130.617 191.734 129.064 186.953C131.399 186.435 133.368 188.567 135.154 190.17C136.941 191.774 140.107 192.82 141.396 190.81C141.884 190.039 141.914 189.003 142.543 188.333C143.558 187.257 145.375 187.866 146.705 188.546C151.973 191.216 157.291 193.814 162.549 196.504C166.091 198.311 169.806 201.681 173.623 202.594C181.925 204.624 182.646 197.306 181.002 191.429C181.002 192.982 190.665 196.89 192.167 197.052C193.11 197.172 194.068 197.024 194.931 196.625C195.794 196.227 196.528 195.594 197.049 194.799C198.064 193.104 197.729 190.993 197.384 189.064C198.541 194.139 205.382 195.611 208.701 191.774C210.538 189.643 211.168 186.699 211.634 183.979C212.648 185.634 214.094 186.981 215.816 187.875C217.538 188.77 219.472 189.177 221.409 189.054C222.018 187.507 222.241 185.835 222.058 184.182C223.702 186.631 225.642 188.867 227.834 190.84C236.563 198.707 240.349 188.171 237.162 180.69C239.902 181.472 242.064 183.624 244.399 185.37C246.997 187.308 250.154 188.952 253.351 188.415C259.857 187.339 258.68 180.031 255.208 176.539C255.604 176.925 260.984 179.036 262.09 179.584C265.45 181.35 268.18 182.873 272.189 182.335C280.644 181.188 273.407 175.23 270.647 172.672C278.7 173.179 286.78 173.108 294.824 172.459C293.917 170.051 292.399 167.92 290.419 166.277L318.676 166.48L309.227 158.36C315.065 157.862 320.824 156.669 326.38 154.808C328.512 154.087 331.029 152.646 330.765 150.413C330.51 149.301 329.888 148.306 328.999 147.591L319.58 138.07C322.96 139.806 327.081 135.909 326.827 132.123C326.34 124.815 311.937 116.664 305.42 116.827C308.437 116.725 311.317 115.548 313.54 113.508C306.842 109.973 299.071 109.044 291.728 110.899C292.855 108.28 297.503 109.782 299.198 107.489C300.213 106.078 299.432 103.906 297.97 102.911C296.415 102.068 294.663 101.655 292.895 101.713C276.503 100.85 259.847 100.099 243.587 102.952C228.524 105.591 217.268 114.462 202.296 116.309C171.883 120.041 141.057 118.565 111.139 111.944C100.664 109.62 90.1694 106.656 79.451 106.869C63.7692 107.204 51.5892 115.172 37.298 120.146C26.5187 123.881 13.5369 125.799 5.83301 135.107C10.3295 137.644 16.2165 138.04 21.2306 137.36Z" fill="white"/>
<path d="M176.15 203.467C175.239 203.454 174.333 203.335 173.45 203.112C170.933 202.513 168.507 200.899 166.152 199.356C164.897 198.491 163.596 197.695 162.255 196.971C159.453 195.54 156.642 194.139 153.82 192.728C151.354 191.5 148.877 190.262 146.421 189.013C145.223 188.414 143.65 187.866 142.848 188.709C142.571 189.053 142.377 189.456 142.279 189.886C142.157 190.312 141.983 190.721 141.762 191.104C141.533 191.464 141.226 191.767 140.864 191.992C140.502 192.217 140.095 192.357 139.671 192.403C138.77 192.445 137.871 192.303 137.027 191.987C136.182 191.672 135.411 191.188 134.758 190.566L134.19 190.049C132.789 188.739 131.338 187.399 129.744 187.399H129.663C129.848 188.599 129.693 189.826 129.215 190.942C128.738 192.058 127.958 193.018 126.963 193.713C124.629 195.53 121.756 195.834 119.645 194.484C118.562 193.709 117.588 192.791 116.752 191.754C115.856 190.503 114.644 189.511 113.24 188.881C113.368 189.319 113.405 189.777 113.349 190.229C113.293 190.681 113.146 191.117 112.916 191.51C112.479 192.33 111.817 193.006 111.007 193.46C110.197 193.913 109.274 194.124 108.348 194.068C105.902 193.764 103.74 191.947 101.751 188.486L101.243 187.592C100.086 185.562 98.8984 183.451 97.0003 182.264C92.1936 185.782 87.1008 188.892 81.7753 191.561C81.6994 191.604 81.6137 191.626 81.5266 191.626C81.4395 191.626 81.3539 191.604 81.278 191.561C81.2027 191.512 81.1416 191.444 81.1007 191.364C81.0597 191.283 81.0404 191.194 81.0445 191.104C81.1909 187.863 81.8415 184.665 82.973 181.624L67.9003 187.024C67.7763 187.067 67.6404 187.061 67.5212 187.006C67.402 186.951 67.3086 186.852 67.2608 186.73C66.4781 184.736 66.3887 182.538 67.0071 180.487C62.9989 183.782 58.5596 186.514 53.8121 188.607C53.6946 188.66 53.5613 188.665 53.4402 188.622C53.319 188.578 53.2195 188.489 53.1625 188.374C51.7039 185.386 51.2722 182 51.9343 178.742L38.4348 188.678C38.3749 188.724 38.3052 188.755 38.2312 188.769C38.1572 188.783 38.081 188.78 38.0085 188.76C37.9365 188.743 37.8696 188.709 37.8131 188.662C37.7567 188.614 37.7123 188.554 37.6837 188.486C36.4467 185.721 35.9309 182.689 36.1848 179.671C36.4386 176.653 37.4537 173.749 39.1352 171.231C35.9731 173.007 32.6364 174.452 29.178 175.544C29.0934 175.571 29.0034 175.575 28.9167 175.556C28.8301 175.537 28.7499 175.496 28.6842 175.436C28.6184 175.377 28.5695 175.301 28.5422 175.217C28.5148 175.132 28.5101 175.042 28.5284 174.956C29.0467 172.759 29.9992 170.688 31.3298 168.866C26.5355 171.655 21.4241 173.86 16.1048 175.433C14.0748 176.042 11.8621 176.448 10.0148 175.585C9.36231 175.283 8.78459 174.841 8.32307 174.29C7.86155 173.739 7.52766 173.093 7.34535 172.398C6.5029 169.353 7.89345 165.293 9.6494 162.664C12.8536 157.782 16.7244 153.371 21.1494 149.56L20.7434 149.743C15.1203 152.301 7.4164 155.833 3.12295 152.93C1.33655 151.732 0.615905 150.311 0.991455 148.728C2.00646 144.536 10.9689 140.324 16.8153 138.273C12.9891 138.324 9.20286 137.491 5.7518 135.837C5.68472 135.801 5.62639 135.75 5.58082 135.689C5.53526 135.628 5.50356 135.557 5.48791 135.482C5.47336 135.409 5.47587 135.333 5.49523 135.261C5.51459 135.189 5.55028 135.122 5.59956 135.066C11.6896 127.657 21.0073 124.916 30.0205 122.216C32.5377 121.465 34.9229 120.755 37.2574 119.943C41.5204 118.461 45.6616 116.684 49.6607 114.969C59.3438 110.818 68.4788 106.849 79.5626 106.656C88.586 106.474 97.5383 108.534 106.206 110.544C107.918 110.95 109.64 111.346 111.373 111.731C141.23 118.366 172.004 119.835 202.357 116.075C210.112 115.121 216.73 112.32 223.733 109.356C229.955 106.717 236.38 103.997 243.627 102.728C260.517 99.7644 278.553 100.698 293.048 101.48C294.914 101.418 296.763 101.864 298.397 102.769C298.886 103.103 299.305 103.53 299.629 104.027C299.953 104.523 300.176 105.079 300.284 105.662C300.369 106.077 300.366 106.506 300.275 106.92C300.184 107.334 300.007 107.725 299.757 108.067C298.823 109.326 297.229 109.569 295.697 109.813C294.986 109.896 294.286 110.049 293.606 110.27C300.522 108.972 307.674 110.044 313.906 113.315C313.976 113.354 314.037 113.409 314.082 113.475C314.128 113.542 314.157 113.618 314.168 113.698C314.179 113.778 314.171 113.859 314.145 113.935C314.118 114.011 314.075 114.08 314.017 114.137C312.563 115.464 310.829 116.445 308.942 117.009C316.413 118.836 326.969 125.941 327.395 132.336C327.431 133.522 327.16 134.697 326.608 135.748C326.057 136.798 325.245 137.689 324.249 138.334C323.374 138.937 322.336 139.256 321.275 139.248L329.395 147.49C330.358 148.293 331.028 149.392 331.303 150.616C331.638 153.519 328.106 155.021 326.573 155.539C321.359 157.287 315.966 158.451 310.495 159.01L319.032 166.318C319.111 166.384 319.168 166.473 319.195 166.573C319.222 166.673 319.218 166.779 319.184 166.876C319.146 166.972 319.08 167.053 318.995 167.111C318.91 167.169 318.81 167.2 318.707 167.201L291.769 167.008C293.338 168.561 294.553 170.434 295.331 172.499C295.356 172.573 295.364 172.651 295.355 172.728C295.346 172.805 295.321 172.88 295.281 172.946C295.238 173.011 295.181 173.066 295.114 173.107C295.048 173.147 294.973 173.172 294.895 173.179C287.297 173.787 279.668 173.882 272.057 173.464C274.29 175.494 277.295 178.437 276.594 180.67C276.199 181.929 274.798 182.7 272.291 183.045C268.231 183.593 265.409 182.101 262.141 180.376L261.897 180.244C261.451 180.02 260.253 179.513 258.984 178.975L257.005 178.133C257.709 179.178 258.186 180.36 258.404 181.601C258.623 182.842 258.578 184.116 258.274 185.339C257.807 186.77 256.599 188.577 253.473 189.095C250.661 189.561 247.616 188.526 244.145 185.948C243.587 185.542 243.049 185.106 242.501 184.669C241.163 183.484 239.671 182.487 238.065 181.705C239.618 186.303 238.776 191.5 236.035 193.469C234.756 194.383 231.975 195.327 227.55 191.368C225.745 189.744 224.11 187.942 222.667 185.989C222.606 187.155 222.356 188.303 221.927 189.389C221.893 189.477 221.835 189.555 221.76 189.612C221.684 189.67 221.594 189.705 221.5 189.714C219.682 189.829 217.862 189.499 216.2 188.752C214.537 188.006 213.082 186.866 211.959 185.43C211.592 187.894 210.584 190.219 209.036 192.17C208.168 193.152 207.043 193.871 205.787 194.246C204.531 194.621 203.195 194.637 201.931 194.291C200.46 193.946 199.141 193.13 198.176 191.967C198.225 193.067 197.968 194.16 197.435 195.124C196.865 196.002 196.059 196.703 195.109 197.144C194.159 197.586 193.104 197.751 192.065 197.621C188.465 196.634 185.023 195.141 181.844 193.185C182.555 196.951 182.027 200.117 180.342 201.863C179.794 202.408 179.138 202.832 178.416 203.108C177.694 203.385 176.922 203.507 176.15 203.467V203.467ZM143.975 187.227C144.995 187.285 145.988 187.577 146.877 188.08C149.334 189.325 151.8 190.563 154.277 191.794C157.098 193.205 159.91 194.606 162.722 196.037C164.094 196.78 165.426 197.597 166.711 198.483C168.984 199.985 171.339 201.528 173.684 202.097C176.383 202.746 178.383 202.421 179.621 201.082C181.59 199.052 181.377 194.992 180.504 191.723C180.462 191.627 180.438 191.524 180.433 191.419C180.437 191.298 180.482 191.182 180.562 191.091C180.641 191.001 180.75 190.94 180.87 190.922C180.991 190.905 181.115 190.932 181.217 191C181.32 191.067 181.395 191.169 181.428 191.287L181.499 191.541C182.26 192.799 190.462 196.372 192.197 196.545C193.045 196.656 193.908 196.525 194.684 196.165C195.46 195.806 196.118 195.233 196.582 194.515C197.455 193.023 197.211 191.114 196.856 189.115C196.832 188.986 196.861 188.852 196.935 188.744C197.009 188.636 197.123 188.561 197.252 188.536C197.382 188.512 197.517 188.538 197.628 188.61C197.74 188.682 197.819 188.793 197.851 188.922C198.098 189.976 198.637 190.938 199.408 191.698C200.178 192.457 201.148 192.983 202.205 193.215C203.288 193.504 204.43 193.488 205.504 193.169C206.579 192.85 207.544 192.241 208.295 191.409C210.071 189.379 210.66 186.557 211.107 183.867C211.125 183.765 211.173 183.671 211.246 183.597C211.318 183.523 211.411 183.472 211.513 183.451C211.615 183.43 211.722 183.442 211.817 183.486C211.912 183.529 211.99 183.603 212.04 183.695C212.976 185.226 214.302 186.482 215.882 187.335C217.462 188.187 219.239 188.605 221.033 188.546C221.526 187.158 221.699 185.677 221.541 184.212C221.527 184.101 221.552 183.988 221.611 183.892C221.67 183.796 221.76 183.723 221.866 183.685C221.973 183.645 222.09 183.642 222.199 183.677C222.307 183.712 222.401 183.783 222.464 183.877C224.083 186.291 225.992 188.497 228.148 190.444C231.021 193.033 233.589 193.753 235.375 192.474C237.933 190.647 238.532 185.238 236.674 180.893C236.639 180.806 236.627 180.711 236.642 180.618C236.656 180.525 236.695 180.438 236.756 180.366C236.818 180.292 236.899 180.238 236.991 180.209C237.083 180.181 237.18 180.178 237.273 180.203C239.419 180.978 241.392 182.168 243.079 183.705C243.607 184.131 244.094 184.557 244.683 184.963C247.921 187.379 250.722 188.343 253.249 187.927C254.139 187.86 254.99 187.537 255.699 186.997C256.409 186.456 256.947 185.722 257.248 184.882C258.02 182.507 256.974 179.087 254.833 176.925C254.74 176.83 254.688 176.702 254.688 176.569C254.688 176.437 254.74 176.309 254.833 176.214C254.929 176.121 255.059 176.068 255.193 176.068C255.328 176.068 255.457 176.121 255.553 176.214C255.807 176.417 257.918 177.3 259.319 177.889C260.72 178.478 261.826 178.904 262.303 179.198L262.547 179.33C265.805 181.046 268.373 182.375 272.098 181.888C274.128 181.614 275.326 181.035 275.579 180.223C276.127 178.467 272.768 175.382 270.961 173.727L270.281 173.098C270.206 173.026 270.155 172.934 270.133 172.833C270.111 172.731 270.12 172.626 270.159 172.53C270.205 172.437 270.276 172.36 270.364 172.306C270.452 172.252 270.553 172.224 270.657 172.225C278.46 172.712 286.287 172.662 294.083 172.073C293.186 169.999 291.812 168.167 290.074 166.724C289.995 166.657 289.939 166.567 289.913 166.467C289.886 166.367 289.891 166.262 289.926 166.165C289.962 166.068 290.026 165.984 290.11 165.924C290.195 165.864 290.295 165.832 290.398 165.831L317.276 166.034L308.882 158.848C308.806 158.783 308.752 158.697 308.725 158.601C308.698 158.506 308.699 158.404 308.729 158.31C308.761 158.216 308.818 158.133 308.896 158.072C308.974 158.011 309.067 157.973 309.166 157.964C314.966 157.462 320.686 156.276 326.208 154.432C327.507 153.996 330.501 152.747 330.268 150.575C330.015 149.579 329.445 148.692 328.644 148.048L319.224 138.527C319.14 138.44 319.089 138.327 319.08 138.207C319.071 138.086 319.104 137.966 319.174 137.867C319.245 137.77 319.348 137.702 319.465 137.674C319.583 137.646 319.706 137.661 319.813 137.715C320.423 138.006 321.101 138.124 321.774 138.058C322.446 137.992 323.088 137.743 323.629 137.34C324.472 136.791 325.161 136.038 325.633 135.15C326.105 134.263 326.345 133.27 326.329 132.265C325.862 125.373 312.008 117.263 305.431 117.446C305.363 117.452 305.295 117.443 305.231 117.42C305.166 117.398 305.108 117.362 305.059 117.314C305.01 117.267 304.972 117.21 304.946 117.147C304.921 117.084 304.91 117.016 304.913 116.948C304.91 116.882 304.921 116.816 304.944 116.754C304.967 116.692 305.002 116.635 305.048 116.587C305.093 116.539 305.148 116.5 305.208 116.473C305.269 116.446 305.334 116.432 305.4 116.431C308.059 116.351 310.619 115.402 312.688 113.731C306.243 110.533 298.868 109.742 291.89 111.498C291.799 111.52 291.703 111.517 291.614 111.488C291.524 111.459 291.444 111.406 291.383 111.334C291.322 111.263 291.282 111.176 291.268 111.082C291.253 110.989 291.265 110.894 291.302 110.808C292.002 109.184 293.748 108.91 295.423 108.656C296.823 108.432 298.153 108.229 298.833 107.306C298.998 107.071 299.114 106.805 299.173 106.524C299.233 106.243 299.234 105.953 299.178 105.672C299.006 104.769 298.484 103.97 297.727 103.449C296.239 102.656 294.57 102.268 292.885 102.322C274.514 101.307 259.228 100.83 243.688 103.56C236.583 104.809 230.178 107.509 224.017 110.117C217.258 112.99 210.264 115.943 202.367 116.918C171.892 120.688 140.995 119.212 111.017 112.553C109.292 112.168 107.566 111.772 105.841 111.366C97.2338 109.336 88.3322 107.306 79.451 107.499C68.5702 107.732 59.5164 111.62 49.9246 115.74C45.8646 117.466 41.7539 119.242 37.4503 120.744C35.1056 121.556 32.5986 122.297 30.1727 123.018C21.4945 125.667 12.5523 128.326 6.645 135.127C10.4817 136.944 15.7293 137.593 21.1798 136.903C21.313 136.886 21.4477 136.922 21.5542 137.004C21.6607 137.086 21.7305 137.207 21.7482 137.34C21.7628 137.472 21.7256 137.606 21.6442 137.712C21.5629 137.818 21.4438 137.888 21.3118 137.908C17.9014 138.334 2.98085 143.998 1.8339 148.87C1.55985 150.017 2.11811 151.042 3.54926 151.996C7.35551 154.615 14.765 151.194 20.175 148.728C21.6467 148.058 22.9155 147.48 23.9508 147.094C24.0648 147.052 24.19 147.053 24.3036 147.096C24.4172 147.139 24.5117 147.221 24.5699 147.327C24.6294 147.433 24.6489 147.557 24.6246 147.677C24.6004 147.796 24.5342 147.902 24.438 147.977C18.9177 152.197 14.151 157.321 10.3396 163.131C8.76635 165.526 7.4164 169.332 8.1675 172.032C8.30945 172.588 8.57352 173.105 8.94049 173.546C9.30746 173.986 9.7681 174.34 10.2889 174.58C11.8926 175.331 13.8414 174.925 15.7191 174.367C22.0952 172.492 28.1643 169.698 33.7354 166.074C33.8412 166.002 33.9711 165.972 34.0979 165.993C34.2246 166.014 34.3384 166.083 34.4154 166.186C34.4911 166.289 34.5258 166.417 34.5126 166.545C34.4995 166.672 34.4395 166.79 34.3444 166.876C32.1316 168.847 30.5173 171.401 29.6855 174.245C33.6545 172.905 37.4449 171.085 40.9723 168.825C41.0745 168.755 41.1997 168.726 41.3223 168.745C41.4449 168.764 41.5557 168.829 41.6321 168.926C41.7134 169.019 41.7583 169.138 41.7583 169.261C41.7583 169.385 41.7134 169.504 41.6321 169.596C39.4633 171.955 38.0011 174.876 37.4125 178.026C36.8238 181.175 37.1323 184.427 38.3029 187.41L52.4114 177.046C52.4973 176.985 52.6002 176.952 52.7057 176.952C52.8112 176.952 52.9141 176.985 53.0001 177.046C53.0873 177.109 53.1527 177.198 53.1873 177.3C53.2218 177.402 53.2238 177.512 53.1929 177.615C52.2016 180.859 52.4179 184.353 53.8019 187.45C58.9727 185.14 63.7638 182.06 68.0119 178.315C68.1038 178.237 68.2208 178.193 68.3418 178.193C68.4627 178.193 68.5797 178.237 68.6717 178.315C68.7628 178.394 68.8239 178.501 68.8442 178.62C68.8646 178.739 68.8431 178.86 68.7833 178.965C68.1737 180.005 67.7916 181.162 67.6621 182.361C67.5326 183.559 67.6588 184.771 68.0322 185.918L83.6835 180.315C83.7754 180.281 83.875 180.275 83.9705 180.296C84.0659 180.318 84.1531 180.367 84.2215 180.437C84.2858 180.511 84.3292 180.6 84.3471 180.697C84.3649 180.793 84.3566 180.893 84.323 180.985C83.0894 183.951 82.3423 187.098 82.1103 190.302C87.205 187.692 92.0824 184.678 96.6958 181.289C96.7784 181.239 96.8732 181.212 96.9699 181.212C97.0665 181.212 97.1613 181.239 97.2439 181.289C99.5479 182.578 100.867 184.913 102.136 187.166L102.644 188.049C104.461 191.216 106.379 192.88 108.49 193.124C109.213 193.152 109.929 192.976 110.557 192.617C111.185 192.259 111.7 191.731 112.043 191.094C112.285 190.722 112.405 190.283 112.387 189.84C112.368 189.396 112.213 188.969 111.941 188.617C111.88 188.543 111.842 188.453 111.831 188.358C111.82 188.262 111.837 188.166 111.88 188.08C111.918 187.992 111.98 187.918 112.059 187.866C112.139 187.813 112.232 187.785 112.327 187.785C114.59 187.785 116.082 189.511 117.524 191.145C118.295 192.113 119.197 192.971 120.203 193.692C121.949 194.809 124.365 194.525 126.354 192.972C127.274 192.355 127.98 191.469 128.374 190.435C128.769 189.4 128.832 188.269 128.557 187.196C128.529 187.131 128.515 187.06 128.515 186.988C128.515 186.917 128.529 186.846 128.557 186.78C128.593 186.719 128.641 186.665 128.699 186.624C128.756 186.582 128.822 186.552 128.892 186.537C131.236 186.029 133.155 187.795 134.85 189.369L135.408 189.876C136.497 190.924 137.957 191.497 139.468 191.47C139.746 191.44 140.013 191.348 140.25 191.2C140.488 191.052 140.689 190.853 140.838 190.617C141.013 190.296 141.149 189.955 141.244 189.602C141.391 189.028 141.665 188.493 142.046 188.039C142.29 187.777 142.588 187.572 142.919 187.437C143.25 187.302 143.607 187.241 143.964 187.257L143.975 187.227Z" fill="#231F20"/>
<path d="M151.79 31.3838C153.536 32.4902 155.19 33.6473 156.743 34.8348C160.077 37.3513 163.121 40.2314 165.817 43.4217C168.755 46.9061 171.151 50.8139 172.922 55.0131C178.921 69.2231 176.485 85.1788 167.543 99.2975C166.013 101.7 164.318 103.993 162.468 106.159C159.306 109.933 155.618 113.231 151.516 115.954C148.529 117.931 145.311 119.537 141.934 120.734C138.658 121.896 135.247 122.64 131.784 122.947C129.138 123.196 126.473 123.196 123.827 122.947C120.301 122.612 116.822 121.89 113.453 120.795C109.277 119.423 105.261 117.602 101.476 115.365C100.766 114.949 100.055 114.512 99.3348 114.056C96.3747 112.176 93.5433 110.101 90.8596 107.844C87.1661 104.748 83.7339 101.353 80.5979 97.6938V97.6938C76.9543 93.4319 73.7287 88.8297 70.9656 83.9507C61.658 67.4569 58.7856 49.1057 67.1898 35.8397C71.0757 29.9176 76.6937 25.3382 83.2775 22.7259C87.0238 21.1539 90.9413 20.0263 94.95 19.3662C98.5892 18.7515 102.272 18.4325 105.963 18.4121C109.467 18.3846 112.97 18.588 116.448 19.0211C120.907 19.5658 125.319 20.4514 129.643 21.6703C132.915 22.5841 136.132 23.689 139.275 24.9792C142.212 26.1601 145.077 27.5159 147.852 29.0392C149.202 29.77 150.501 30.582 151.79 31.3838Z" fill="white"/>
<path d="M106.592 18.402C109.887 18.4082 113.178 18.615 116.448 19.0212C120.907 19.5658 125.318 20.4515 129.643 21.6703C132.915 22.5841 136.132 23.689 139.275 24.9792C142.212 26.1601 145.076 27.5159 147.852 29.0392C149.171 29.7599 150.471 30.5313 151.739 31.3331C153.485 32.4395 155.14 33.5966 156.692 34.7841C160.027 37.3006 163.07 40.1807 165.767 43.371C168.705 46.8553 171.1 50.7631 172.872 54.9623C178.87 69.1723 176.434 85.1281 167.492 99.2468C165.963 101.65 164.267 103.942 162.417 106.108C159.256 109.882 155.567 113.181 151.465 115.903C148.478 117.881 145.26 119.486 141.884 120.684C138.607 121.845 135.197 122.589 131.734 122.896C130.455 123.018 129.156 123.079 127.846 123.079C126.537 123.079 125.146 123.018 123.786 122.886C120.26 122.551 116.781 121.83 113.413 120.734C109.236 119.362 105.22 117.541 101.436 115.304C100.725 114.888 100.015 114.451 99.2942 113.995C96.334 112.115 93.5026 110.04 90.819 107.783C87.1254 104.687 83.6933 101.292 80.5573 97.6329V97.6329C76.9137 93.371 73.6881 88.7688 70.925 83.8898C61.6174 67.396 58.745 49.0449 67.1492 35.7788C71.0551 29.8729 76.687 25.3149 83.2775 22.7259C87.0237 21.1539 90.9413 20.0263 94.95 19.3663C98.5892 18.7515 102.272 18.4325 105.963 18.4122H106.592V18.402ZM106.592 17.3972H105.953C102.21 17.4388 98.4764 17.7782 94.7876 18.4122C90.7029 19.0862 86.7107 20.2341 82.8918 21.8327C75.6549 24.8777 70.1129 29.4249 66.4082 35.2713C58.4709 47.8066 59.8716 66.1882 70.1637 84.4176C72.9553 89.3539 76.2149 94.0105 79.8975 98.3231C79.8975 98.3231 79.8975 98.3231 79.8975 98.3231C83.0619 102.027 86.5245 105.466 90.2506 108.605C92.9688 110.893 95.8376 112.995 98.8375 114.898C99.5581 115.365 100.289 115.812 101.02 116.228C104.864 118.508 108.949 120.356 113.2 121.739C116.636 122.865 120.186 123.604 123.786 123.942C125.167 124.074 126.567 124.145 127.948 124.145C129.328 124.145 130.607 124.084 131.926 123.962C135.466 123.639 138.952 122.872 142.3 121.678C145.751 120.455 149.04 118.816 152.095 116.796C156.273 114.02 160.033 110.66 163.26 106.819C165.13 104.614 166.843 102.281 168.385 99.8355C177.876 84.8541 179.814 68.7968 173.846 54.6172C172.023 50.3245 169.562 46.3312 166.548 42.7722C163.805 39.5274 160.71 36.5965 157.322 34.033C155.728 32.815 154.033 31.6376 152.247 30.5313C150.948 29.7091 149.628 28.9276 148.309 28.2069C145.5 26.65 142.603 25.2604 139.63 24.0454C132.226 21.0149 124.45 18.9872 116.509 18.0163C113.199 17.6066 109.866 17.3998 106.531 17.3972H106.592Z" fill="#231F20"/>
<path d="M94.95 19.3662C86.9924 44.6803 80.872 71.1313 80.6588 97.6228C77.0152 93.3608 73.7896 88.7586 71.0265 83.8796C72.5997 63.0924 77.2586 42.7315 83.2775 22.7259C87.0238 21.1539 90.9413 20.0263 94.95 19.3662V19.3662Z" fill="#E6E7E8"/>
<path d="M116.448 19.0211C106.46 50.0091 98.9795 82.7936 101.547 115.355C100.837 114.939 100.126 114.502 99.4058 114.045C96.4457 112.166 93.6143 110.091 90.9306 107.834C90.9306 106.524 90.8595 105.205 90.8494 103.895C90.5347 74.6025 97.1525 46.1825 105.963 18.4121C109.467 18.3846 112.97 18.588 116.448 19.0211Z" fill="#E6E7E8"/>
<path d="M139.305 24.9792C129.064 56.4442 121.269 89.8072 123.898 122.937C120.372 122.602 116.893 121.88 113.524 120.785C113.332 117.679 113.22 114.563 113.19 111.457C112.865 80.6519 120.193 50.8008 129.673 21.6703C132.946 22.5841 136.162 23.689 139.305 24.9792V24.9792Z" fill="#E6E7E8"/>
<path d="M151.79 31.3838C153.536 32.4902 155.19 33.6473 156.743 34.8348C147.933 62.5545 141.224 91.6748 141.995 120.734C138.719 121.896 135.308 122.64 131.845 122.947C131.774 121.242 131.734 119.547 131.713 117.872C131.399 87.422 138.544 57.9261 147.872 29.1204C149.202 29.77 150.501 30.582 151.79 31.3838Z" fill="#E6E7E8"/>
<path d="M165.797 43.4217C168.735 46.9061 171.13 50.8139 172.902 55.0131C168.05 71.7301 164.193 88.8836 162.478 106.159C159.316 109.933 155.628 113.231 151.526 115.954C152.683 91.208 158.398 67.0712 165.797 43.4217Z" fill="#E6E7E8"/>
<path d="M101.426 53.3789C108.409 55.4028 114.95 58.7183 120.711 63.1533C125.162 66.612 128.882 70.919 131.658 75.8252C134.433 80.7313 136.208 86.1392 136.88 91.7358C137.521 96.9459 137.367 102.223 136.423 107.387V107.387C135.986 109.853 135.399 112.29 134.667 114.685C133.942 117.079 133.068 119.425 132.048 121.709V121.709C130.002 126.379 127.283 130.726 123.979 134.609C120.154 139.128 115.431 142.802 110.11 145.398C104.79 147.995 98.9878 149.457 93.0722 149.692C86.2317 149.967 79.3959 149.043 72.8737 146.962C69.4746 145.923 66.1511 144.651 62.9267 143.156C51.7655 138.004 41.8154 130.558 33.7252 121.303C30.3906 117.489 27.5028 113.308 25.118 108.838C20.7433 100.556 18.825 91.8575 20.246 83.565C20.4545 82.3573 20.7392 81.1639 21.0986 79.9922C21.4623 78.8023 21.8996 77.6362 22.4079 76.5006C26.1736 68.0558 33.7049 61.4887 43.185 56.9821C46.0567 55.6264 49.0212 54.4765 52.0561 53.5413C63.3721 50.1384 75.263 49.0781 87.0025 50.4252C91.8905 50.9668 96.7184 51.9555 101.426 53.3789V53.3789Z" fill="white"/>
<path d="M77.0657 49.867C80.3859 49.8652 83.7035 50.0516 87.0026 50.4252C91.8905 50.9668 96.7184 51.9555 101.426 53.3789C108.409 55.4028 114.95 58.7183 120.711 63.1534C125.162 66.612 128.882 70.919 131.658 75.8252C134.433 80.7313 136.208 86.1392 136.88 91.7358C137.521 96.9459 137.367 102.223 136.423 107.387V107.387C135.986 109.853 135.399 112.29 134.667 114.685C133.942 117.079 133.068 119.425 132.048 121.709V121.709C130.002 126.379 127.284 130.726 123.979 134.609C120.154 139.128 115.431 142.802 110.11 145.398C104.79 147.995 98.9878 149.457 93.0723 149.692C92.2197 149.743 91.3671 149.763 90.5043 149.763C84.5211 149.709 78.5792 148.765 72.8738 146.962C69.4746 145.923 66.1511 144.651 62.9268 143.156C51.7655 138.004 41.8154 130.558 33.7252 121.303C30.3906 117.489 27.5028 113.308 25.118 108.838C20.7434 100.556 18.825 91.8576 20.246 83.565C20.4545 82.3573 20.7393 81.1639 21.0986 79.9922C21.4624 78.8023 21.8996 77.6362 22.408 76.5006C26.1736 68.0558 33.7049 61.4887 43.185 56.9821C46.0568 55.6264 49.0213 54.4765 52.0561 53.5413C60.1624 51.0746 68.5925 49.8361 77.0657 49.867V49.867ZM77.0657 48.852C68.4903 48.8301 59.9592 50.0821 51.7516 52.5669C48.6711 53.5183 45.6624 54.6885 42.7486 56.0687C32.5174 60.9305 25.1586 67.8528 21.4843 76.1048C20.9547 77.2791 20.5004 78.486 20.1242 79.7182C19.757 80.9311 19.4621 82.1648 19.2412 83.4128C17.81 91.4719 19.5254 100.434 24.1944 109.316C26.6178 113.856 29.5497 118.105 32.9335 121.983C41.1247 131.336 51.1869 138.867 62.47 144.089C65.7371 145.597 69.1008 146.885 72.5388 147.946C78.3439 149.775 84.3879 150.733 90.4739 150.788C91.3468 150.788 92.2298 150.788 93.0926 150.717C99.1441 150.483 105.081 148.995 110.527 146.346C115.973 143.697 120.81 139.946 124.73 135.33C128.101 131.355 130.874 126.91 132.962 122.135V122.135C135.015 117.496 136.501 112.626 137.387 107.631V107.631C138.345 102.366 138.499 96.986 137.844 91.6749C137.169 85.94 135.363 80.3961 132.53 75.3643C129.697 70.3325 125.893 65.913 121.34 62.3617C115.485 57.8489 108.838 54.4718 101.74 52.4045C96.9734 50.9647 92.0842 49.9658 87.1345 49.4204C83.7984 49.0422 80.4435 48.8525 77.086 48.852H77.0657Z" fill="#231F20"/>
<path d="M54.2789 122.774C62.7846 128.245 66.8548 137.086 63.3632 142.536C63.2211 142.75 63.0688 142.963 62.9064 143.166C51.7452 138.014 41.7951 130.568 33.7049 121.313C37.8867 117.344 46.5751 117.831 54.2789 122.774Z" fill="#CD8A00"/>
<path d="M96.7678 126.215C98.657 120.028 92.3436 112.617 82.6664 109.662C72.9892 106.707 63.6128 109.327 61.7236 115.514C59.8345 121.701 66.1479 129.112 75.8251 132.067C85.5023 135.022 94.8786 132.402 96.7678 126.215Z" fill="#CD8A00"/>
<path d="M20.246 83.565C21.312 84.5042 22.3061 85.5221 23.2199 86.61C29.6956 94.3747 30.9339 104.038 25.9604 108.179C25.6882 108.409 25.3999 108.619 25.0977 108.808C20.7433 100.556 18.825 91.8575 20.246 83.565Z" fill="#CD8A00"/>
<path d="M43.185 56.9821C44.9511 62.7981 39.6833 70.3395 30.9035 74.2371C28.2163 75.4562 25.3455 76.221 22.408 76.5006C26.1736 68.0558 33.7049 61.4887 43.185 56.9821Z" fill="#CD8A00"/>
<path d="M113.464 83.7164C115.353 77.5294 109.04 70.1184 99.3624 67.1635C89.6852 64.2086 80.3088 66.8287 78.4196 73.0157C76.5304 79.2026 82.8439 86.6136 92.5211 89.5685C102.198 92.5234 111.575 89.9033 113.464 83.7164Z" fill="#CD8A00"/>
<path d="M71.5692 95.4305C73.4584 89.2435 67.145 81.8326 57.4678 78.8777C47.7906 75.9227 38.4142 78.5428 36.525 84.7298C34.6359 90.9168 40.9493 98.3277 50.6265 101.283C60.3036 104.238 69.68 101.617 71.5692 95.4305Z" fill="#CD8A00"/>
<path d="M124.162 99.2264C129.582 100.881 133.946 103.936 136.403 107.346C135.965 109.812 135.379 112.249 134.647 114.644C133.922 117.038 133.047 119.384 132.028 121.668C128.059 123.15 122.731 123.241 117.31 121.587C107.637 118.633 101.324 111.224 103.212 105.032C105.1 98.8407 114.479 96.2728 124.162 99.2264Z" fill="#CD8A00"/>
<path d="M123.959 134.619C120.133 139.138 115.411 142.812 110.09 145.408C104.77 148.005 98.9675 149.467 93.0519 149.702C92.8203 149.209 92.6433 148.692 92.5241 148.16C91.1336 141.836 98.0254 134.965 107.901 132.772C114.133 131.402 120.071 132.285 123.959 134.619Z" fill="#CD8A00"/>
<path d="M120.69 63.1534C125.141 66.612 128.862 70.919 131.638 75.8252C134.413 80.7313 136.188 86.1392 136.859 91.7358C132.475 90.802 127.724 87.5032 124.05 82.4688C119.148 75.648 117.95 67.7919 120.69 63.1534Z" fill="#CD8A00"/>
<path d="M87.0025 50.4252C85.1349 55.3886 78.5476 59.4791 70.387 60.2708C62.2264 61.0625 54.7154 58.2407 52.0561 53.5413C63.3721 50.1384 75.263 49.0781 87.0025 50.4252V50.4252Z" fill="#CD8A00"/>
<path d="M280.086 115.406C280.086 115.406 287.465 95.816 302.69 86.3258C302.69 86.3258 305.116 94.4458 299.645 103.581C299.645 103.581 307.207 98.5667 313.581 97.3386C313.581 97.3386 311.023 102.464 304.101 110.331L318.006 105.601C318.006 105.601 315.713 118.156 299.645 122.49" fill="white"/>
<path d="M299.665 122.957C299.554 122.957 299.446 122.919 299.358 122.852C299.27 122.784 299.207 122.689 299.178 122.582C299.16 122.518 299.154 122.451 299.162 122.385C299.17 122.318 299.192 122.255 299.225 122.197C299.258 122.139 299.302 122.089 299.355 122.048C299.408 122.008 299.469 121.979 299.533 121.962C307.653 119.77 312.119 115.406 314.434 112.127C315.69 110.362 316.659 108.409 317.306 106.342L304.284 110.767C304.179 110.802 304.066 110.802 303.962 110.767C303.858 110.732 303.768 110.665 303.705 110.574C303.637 110.485 303.6 110.377 303.6 110.265C303.6 110.153 303.637 110.044 303.705 109.955C307.035 106.271 310.006 102.278 312.576 98.0287C306.618 99.5309 299.97 103.916 299.899 103.967C299.802 104.027 299.688 104.054 299.574 104.043C299.46 104.032 299.353 103.984 299.269 103.906C299.189 103.826 299.137 103.722 299.122 103.61C299.108 103.498 299.131 103.384 299.188 103.286C302.161 98.4596 303.276 92.7161 302.325 87.1276C287.81 96.5671 280.593 115.395 280.522 115.548C280.505 115.617 280.473 115.682 280.429 115.738C280.384 115.794 280.329 115.84 280.266 115.873C280.202 115.906 280.133 115.926 280.061 115.93C279.99 115.934 279.919 115.923 279.852 115.898C279.785 115.873 279.724 115.834 279.673 115.784C279.622 115.734 279.583 115.673 279.557 115.606C279.531 115.54 279.52 115.469 279.524 115.397C279.527 115.326 279.546 115.256 279.578 115.192C279.65 114.989 287.181 95.3288 302.386 85.8487C302.455 85.8161 302.532 85.7992 302.609 85.7992C302.686 85.7992 302.762 85.8161 302.832 85.8487C302.904 85.8762 302.969 85.9197 303.022 85.976C303.075 86.0323 303.114 86.0998 303.137 86.1735C303.228 86.4983 305.278 93.6033 300.995 102.089C303.593 100.536 308.8 97.6938 313.459 96.8006C313.551 96.7798 313.647 96.786 313.735 96.8184C313.823 96.8509 313.9 96.9081 313.957 96.9833C314.016 97.0585 314.052 97.1493 314.061 97.2448C314.07 97.3402 314.052 97.4362 314.007 97.5212C313.906 97.7141 311.652 102.2 305.684 109.214L317.864 105.083C317.948 105.054 318.038 105.048 318.125 105.064C318.212 105.08 318.293 105.118 318.362 105.174C318.426 105.234 318.475 105.309 318.503 105.392C318.532 105.476 318.539 105.565 318.524 105.651C318.524 105.783 315.987 118.572 299.797 122.906L299.665 122.957Z" fill="#231F20"/>
<path d="M273.357 137.908C271.712 139.431 270.058 140.821 268.393 142.1C264.345 145.257 259.868 147.82 255.097 149.713C236.37 157.031 217.542 150.728 203.657 135.878C192.329 123.698 187.011 108.554 190.218 93.5222C191.248 88.7496 193.041 84.1742 195.526 79.9719C198.556 74.8666 202.318 70.2329 206.691 66.2187C209.894 63.2619 213.336 60.5765 216.983 58.19C219.744 56.3581 222.607 54.6873 225.56 53.1861C231.993 49.8875 238.812 47.4052 245.86 45.7969C249.1 45.0567 252.386 44.5378 255.696 44.2439C269.54 43.0361 282.38 46.2029 290.612 55.0537C298.204 63.1737 300.68 74.9578 299.28 87.5337C298.901 90.8408 298.291 94.1172 297.453 97.3386C295.67 104.06 293.069 110.537 289.708 116.624C288.076 119.623 286.27 122.524 284.298 125.312C281.089 129.872 277.422 134.092 273.357 137.908V137.908Z" fill="white"/>
<path d="M261.248 43.98C272.93 43.98 283.507 47.3802 290.622 55.0333C298.214 63.1533 300.69 74.9375 299.29 87.5133C298.912 90.8205 298.301 94.0968 297.463 97.3182C295.681 104.039 293.08 110.516 289.718 116.603C288.087 119.603 286.28 122.504 284.308 125.292C281.095 129.852 277.426 134.072 273.357 137.888C271.712 139.41 270.058 140.801 268.393 142.08C264.345 145.236 259.868 147.8 255.097 149.692C250.043 151.693 244.658 152.726 239.222 152.737C226.027 152.737 213.563 146.495 203.697 135.837C192.37 123.657 187.051 108.514 190.258 93.4815C191.289 88.709 193.081 84.1336 195.567 79.9313C198.597 74.826 202.358 70.1923 206.732 66.178C209.923 63.2372 213.352 60.5654 216.983 58.19C219.743 56.3581 222.607 54.6873 225.56 53.186C231.993 49.8875 238.812 47.4052 245.86 45.7968C249.1 45.0567 252.386 44.5378 255.696 44.2439C257.563 44.0815 259.421 44.0003 261.237 44.0003L261.248 43.98ZM261.237 42.9853C259.39 42.9853 257.502 43.0665 255.594 43.239C252.24 43.5356 248.909 44.0612 245.627 44.8123C238.493 46.4332 231.592 48.9429 225.083 52.2827C222.097 53.8101 219.2 55.5044 216.405 57.3577C212.731 59.7762 209.262 62.492 206.032 65.4777C201.572 69.571 197.739 74.2973 194.653 79.505C192.119 83.8093 190.286 88.4894 189.223 93.3699C186.036 108.331 190.898 123.688 202.916 136.619C213.238 147.723 226.129 153.874 239.222 153.874C244.783 153.856 250.292 152.796 255.462 150.748C260.315 148.814 264.871 146.204 268.992 142.993C270.677 141.704 272.372 140.273 274.067 138.73C278.189 134.872 281.903 130.6 285.151 125.982C287.147 123.165 288.978 120.233 290.632 117.202C294.034 111.029 296.662 104.459 298.457 97.643C299.308 94.3748 299.929 91.051 300.315 87.696C301.858 73.892 298.762 62.4022 291.383 54.4649C284.44 46.9235 274.037 42.965 261.258 42.965L261.237 42.9853Z" fill="#231F20"/>
<path d="M297.463 97.2979C275.377 88.2815 257.524 71.2373 247.494 49.5929C246.936 48.3749 246.388 47.1163 245.87 45.8476C249.11 45.1074 252.396 44.5886 255.706 44.2946C256.568 46.1318 257.492 47.8674 258.324 49.4407C265.032 62.1589 274.865 72.9622 286.897 80.8346C290.829 83.4203 294.975 85.6649 299.29 87.5438C298.909 90.8338 298.299 94.0932 297.463 97.2979Z" fill="#E6E7E8"/>
<path d="M268.393 142.1C264.345 145.257 259.868 147.82 255.097 149.713C235.186 144.652 217.462 133.252 204.6 117.233C198.772 109.993 193.936 102.009 190.218 93.4917C191.248 88.7191 193.041 84.1438 195.526 79.9415C196.541 83.1286 197.759 86.2649 199.089 89.3404C206.894 107.336 220.404 123.252 237.659 132.539C247.179 137.707 257.621 140.956 268.393 142.1V142.1Z" fill="#E6E7E8"/>
<path d="M284.308 125.312C265.216 120.164 248.329 108.919 236.218 93.2887C228.507 83.4568 222.346 72.5035 217.948 60.8087C217.623 59.9459 217.288 59.073 216.933 58.2001C219.693 56.3682 222.557 54.6974 225.51 53.1962C226.978 57.4284 228.672 61.5789 230.585 65.6299C239.506 84.5698 253.412 101.277 272.402 110.665C277.88 113.373 283.678 115.378 289.657 116.634C288.045 119.628 286.259 122.526 284.308 125.312V125.312Z" fill="#E6E7E8"/>
<path d="M244.764 58.19C240.836 53.9575 234.249 60.0576 238.187 64.28C242.125 68.5024 248.702 62.3921 244.764 58.19Z" fill="#E6E7E8"/>
<path d="M261.227 79.2411C257.299 75.0187 250.712 81.1188 254.65 85.3311C258.588 89.5433 265.165 83.4838 261.227 79.2411Z" fill="#E6E7E8"/>
<path d="M282.035 96.9122C278.107 92.6797 271.53 98.79 275.468 103.002C279.406 107.214 285.973 101.155 282.035 96.9122Z" fill="#E6E7E8"/>
<path d="M213.705 81.4031C209.777 77.1705 203.19 83.2808 207.128 87.4931C211.066 91.7053 217.613 85.6458 213.705 81.4031Z" fill="#E6E7E8"/>
<path d="M232.858 108.118L232.665 107.915C228.727 103.682 222.15 109.782 226.088 114.005L226.281 114.208C230.209 118.461 236.796 112.361 232.858 108.118Z" fill="#E6E7E8"/>
<path d="M259.999 129.9C260.274 129.385 260.411 128.808 260.395 128.225C260.386 127.045 259.962 125.906 259.197 125.007L258.263 124.246C257.605 123.833 256.848 123.602 256.071 123.576L254.924 123.678C254.164 123.861 253.464 124.239 252.894 124.774L252.559 125.089C252.099 125.479 251.749 125.983 251.544 126.55C251.26 127.059 251.113 127.632 251.118 128.215C251.065 128.794 251.17 129.376 251.422 129.9C251.576 130.482 251.884 131.012 252.316 131.432L253.239 132.194C253.902 132.605 254.662 132.836 255.442 132.864L256.579 132.752C257.357 132.584 258.076 132.209 258.659 131.666L258.994 131.351C259.449 130.963 259.796 130.462 259.999 129.9Z" fill="#E6E7E8"/>
<path d="M277.214 51.217C273.275 46.9844 266.698 53.0947 270.636 57.307C274.574 61.5192 281.152 55.4597 277.214 51.217Z" fill="#E6E7E8"/>
<path d="M291.312 65.7111C287.384 61.4887 280.796 67.5889 284.735 71.8011C288.673 76.0134 295.25 69.9538 291.312 65.7111Z" fill="#E6E7E8"/>
<path d="M201.21 151.042C197.637 154.558 193.649 157.625 189.335 160.177C187.402 161.325 185.395 162.342 183.326 163.222C180.586 164.382 177.737 165.263 174.82 165.851C171.236 166.583 167.57 166.836 163.919 166.602C152.023 165.871 140.726 160.086 131.49 150.575C124.892 144.02 120.138 135.842 117.706 126.865C116.89 123.696 116.444 120.443 116.377 117.172C116.3 113.441 116.724 109.717 117.635 106.098C118.134 104.123 118.765 102.183 119.523 100.292C122.61 92.9496 127.206 86.3377 133.012 80.8854C138.493 75.6136 144.671 71.1192 151.374 67.528C152.714 66.7871 154.084 66.0867 155.434 65.4371C177.388 54.9623 202.916 53.7646 216.598 67.8427C230.442 82.0527 228.301 108.016 216.862 129.839C216.161 131.158 215.42 132.478 214.659 133.767C210.958 140.093 206.436 145.902 201.21 151.042V151.042Z" fill="#CD8A00"/>
<path d="M188.33 57.4186C199.495 57.4186 209.645 60.626 216.618 67.8325C230.463 82.0425 228.321 108.006 216.882 129.829C216.182 131.148 215.441 132.468 214.679 133.757C210.967 140.078 206.435 145.88 201.2 151.012C197.627 154.527 193.639 157.595 189.325 160.147C187.392 161.294 185.384 162.312 183.316 163.192C180.576 164.351 177.726 165.232 174.81 165.821C172.077 166.375 169.296 166.658 166.507 166.663C165.645 166.663 164.772 166.663 163.909 166.572C152.013 165.841 140.716 160.055 131.48 150.545C124.882 143.99 120.128 135.812 117.696 126.834C116.88 123.666 116.433 120.413 116.366 117.141C116.366 117.141 116.366 117.141 116.366 117.141C116.29 113.41 116.714 109.686 117.625 106.068C118.124 104.092 118.754 102.153 119.513 100.262C122.6 92.9191 127.196 86.3073 133.002 80.855C138.483 75.5831 144.661 71.0887 151.364 67.4975C152.703 66.7566 154.074 66.0563 155.424 65.4067C166.132 60.3317 177.683 57.3983 188.3 57.3983L188.33 57.4186ZM188.3 56.3833C177.774 56.3833 165.97 59.2659 154.987 64.5033C153.617 65.1529 152.226 65.8634 150.846 66.6145C144.059 70.2446 137.805 74.7941 132.261 80.1343C126.356 85.6882 121.685 92.4211 118.549 99.8963C117.764 101.828 117.117 103.812 116.61 105.834C115.687 109.517 115.253 113.305 115.321 117.101C115.311 117.154 115.311 117.209 115.321 117.263C115.397 120.583 115.854 123.883 116.681 127.098C119.167 136.246 124.007 144.582 130.719 151.276C140.392 161.223 151.831 166.876 163.818 167.607C164.701 167.668 165.594 167.698 166.477 167.698C169.334 167.694 172.183 167.405 174.983 166.836C177.965 166.231 180.879 165.33 183.681 164.146C185.776 163.266 187.81 162.249 189.771 161.101C194.155 158.5 198.207 155.378 201.84 151.803C207.17 146.609 211.785 140.728 215.562 134.315C216.303 133.056 217.054 131.717 217.785 130.336C228.422 110.036 232.422 82.6312 217.359 67.1626C210.538 60.1083 200.51 56.4036 188.33 56.4036L188.3 56.3833Z" fill="#231F20"/>
<path d="M214.72 133.757C212.748 132.821 210.591 132.341 208.409 132.353C206.226 132.366 204.075 132.87 202.114 133.828C199.465 135.188 197.039 137.177 193.913 137.238C192.451 137.237 191.025 136.781 189.834 135.934C188.643 135.086 187.745 133.889 187.264 132.508C186.783 131.188 186.566 129.786 186.627 128.382C186.688 126.979 187.025 125.601 187.62 124.327C188.35 122.739 189.234 121.227 190.259 119.811C191.02 118.704 192.461 117.182 192.684 115.812C193.202 112.695 188.239 114.147 186.96 114.868C184.412 116.309 182.189 118.278 179.297 119.08C173.623 120.663 169.147 116.319 168.335 110.899C167.32 104.251 171.887 99.3787 174.12 93.5424C174.353 92.9436 174.8 92.0707 174.364 91.5124C173.927 90.9542 172.963 90.9846 172.425 90.9643C171.14 90.9519 169.863 91.1614 168.649 91.5835C165.905 92.6232 163.295 93.9862 160.874 95.6435C156.753 98.1201 149.476 102.556 145.802 97.0036C142.391 91.8474 145.802 85.3006 148.654 80.7636C150.349 78.1043 152.46 75.2115 152.714 71.9534C152.861 70.3587 152.4 68.7673 151.425 67.4975C152.764 66.7566 154.135 66.0562 155.485 65.4066C157.515 68.7358 157.403 73.5266 155.85 77.1502C154.409 80.4997 152.074 83.3315 150.43 86.5694C149.506 88.3862 147.192 94.6894 150.775 95.136C153.384 95.4303 156.591 92.9436 158.692 91.6749C161.153 90.0972 163.748 88.7386 166.447 87.6148C169.088 86.4863 172.015 86.2095 174.82 86.8231C176.175 87.1368 177.355 87.9637 178.112 89.1299C178.87 90.2961 179.145 91.7105 178.88 93.0755C177.764 99.0437 171.603 103.966 172.719 110.331C173.166 112.838 174.749 115.314 177.622 114.817C180.494 114.319 182.92 111.721 185.59 110.432C186.754 109.782 188.049 109.4 189.379 109.312C190.71 109.224 192.043 109.433 193.283 109.925C194.506 110.404 195.542 111.265 196.235 112.381C196.929 113.497 197.242 114.807 197.13 116.116C196.714 119.232 194.085 121.78 192.542 124.378C191.314 126.469 189.853 130.367 192.349 132.255C194.44 133.838 197.627 131.087 199.454 130.113C201.888 128.79 204.585 128.024 207.351 127.87C210.652 127.675 213.948 128.332 216.923 129.778C216.192 131.148 215.451 132.468 214.72 133.757Z" fill="white"/>
<path d="M189.345 160.197C187.412 161.345 185.405 162.362 183.336 163.242C176.077 161.084 169.102 158.065 162.559 154.25C152.866 148.606 144.584 141.055 137.184 132.681C129.834 124.466 123.285 115.568 117.625 106.108C118.124 104.133 118.754 102.193 119.513 100.302C121.117 103.297 122.852 106.2 124.7 109.042C130.725 118.304 137.629 126.964 145.314 134.904C152.273 142.166 160.384 148.23 169.319 152.849C175.677 156.09 182.4 158.557 189.345 160.197V160.197Z" fill="white"/>
<path d="M174.82 165.851C171.236 166.583 167.57 166.836 163.919 166.602C160.364 165.078 156.907 163.335 153.566 161.385C143.873 155.742 135.58 148.19 128.191 139.806C124.537 135.645 120.995 131.331 117.686 126.865C116.869 123.696 116.423 120.443 116.356 117.172C122.226 126.059 128.91 134.381 136.321 142.029C143.271 149.3 151.38 155.367 160.316 159.984C164.971 162.357 169.824 164.32 174.82 165.851V165.851Z" fill="white"/>
<path d="M155.556 120.521C158.381 120.521 160.671 118.231 160.671 115.406C160.671 112.58 158.381 110.29 155.556 110.29C152.73 110.29 150.44 112.58 150.44 115.406C150.44 118.231 152.73 120.521 155.556 120.521Z" fill="white"/>
<path d="M136.677 115.791C139.502 115.791 141.792 113.501 141.792 110.676C141.792 107.85 139.502 105.56 136.677 105.56C133.851 105.56 131.561 107.85 131.561 110.676C131.561 113.501 133.851 115.791 136.677 115.791Z" fill="white"/>
<path d="M157.809 141.491C160.634 141.491 162.925 139.201 162.925 136.375C162.925 133.55 160.634 131.26 157.809 131.26C154.984 131.26 152.693 133.55 152.693 136.375C152.693 139.201 154.984 141.491 157.809 141.491Z" fill="white"/>
<path d="M193.598 99.5817C196.423 99.5817 198.713 97.2914 198.713 94.4661C198.713 91.6408 196.423 89.3505 193.598 89.3505C190.773 89.3505 188.482 91.6408 188.482 94.4661C188.482 97.2914 190.773 99.5817 193.598 99.5817Z" fill="white"/>
<path d="M176.434 142.009C179.259 142.009 181.55 139.718 181.55 136.893C181.55 134.068 179.259 131.777 176.434 131.777C173.609 131.777 171.319 134.068 171.319 136.893C171.319 139.718 173.609 142.009 176.434 142.009Z" fill="white"/>
<path d="M218.831 100.8C221.656 100.8 223.946 98.5094 223.946 95.6841C223.946 92.8588 221.656 90.5685 218.831 90.5685C216.005 90.5685 213.715 92.8588 213.715 95.6841C213.715 98.5094 216.005 100.8 218.831 100.8Z" fill="white"/>
<path d="M197.952 79.3121C200.777 79.3121 203.068 77.0218 203.068 74.1965C203.068 71.3713 200.777 69.081 197.952 69.081C195.127 69.081 192.837 71.3713 192.837 74.1965C192.837 77.0218 195.127 79.3121 197.952 79.3121Z" fill="white"/>
<path d="M181.286 76.8457C184.111 76.8457 186.401 74.5554 186.401 71.7301C186.401 68.9048 184.111 66.6145 181.286 66.6145C178.461 66.6145 176.17 68.9048 176.17 71.7301C176.17 74.5554 178.461 76.8457 181.286 76.8457Z" fill="white"/>
<path d="M188.492 154.422C191.318 154.422 193.608 152.132 193.608 149.307C193.608 146.481 191.318 144.191 188.492 144.191C185.667 144.191 183.377 146.481 183.377 149.307C183.377 152.132 185.667 154.422 188.492 154.422Z" fill="white"/>
<path d="M210.031 116.492C212.856 116.492 215.146 114.201 215.146 111.376C215.146 108.551 212.856 106.26 210.031 106.26C207.205 106.26 204.915 108.551 204.915 111.376C204.915 114.201 207.205 116.492 210.031 116.492Z" fill="white"/>
<path d="M90.0171 155.518C94.8891 145.734 91.8847 132.701 83.2166 126.083C79.7547 134.473 78.9504 143.723 80.9126 152.585C75.549 144.141 67.2221 138.008 57.5676 135.391C59.4961 141.714 59.9122 154.94 75.8376 162.187" fill="white"/>
<path d="M75.8579 162.735C75.7841 162.733 75.7116 162.715 75.6447 162.684C61.9727 156.462 59.557 145.916 57.9533 138.933C57.6792 137.705 57.4052 136.538 57.1108 135.574C57.0873 135.487 57.0861 135.396 57.1074 135.309C57.1287 135.222 57.1718 135.142 57.2326 135.076C57.2956 135.011 57.3752 134.964 57.4629 134.941C57.5506 134.918 57.6429 134.919 57.73 134.944C66.6626 137.38 74.4969 142.79 79.9382 150.281C78.5993 142.057 79.5727 133.623 82.7497 125.921C82.7781 125.849 82.8233 125.784 82.8816 125.733C82.9398 125.682 83.0094 125.645 83.0847 125.627C83.1605 125.607 83.2398 125.604 83.317 125.618C83.3941 125.632 83.4673 125.663 83.5313 125.708C87.8959 129.221 90.9533 134.099 92.2124 139.559C93.4714 145.018 92.8591 150.743 90.4739 155.813C90.4446 155.873 90.4038 155.926 90.3538 155.971C90.3038 156.015 90.2455 156.049 90.1823 156.071C90.1191 156.092 90.0523 156.101 89.9856 156.097C89.919 156.093 89.8538 156.076 89.7938 156.046C89.7337 156.017 89.68 155.976 89.636 155.926C89.592 155.876 89.5586 155.817 89.5378 155.754C89.5169 155.69 89.5091 155.623 89.5147 155.556C89.5203 155.49 89.5393 155.425 89.5705 155.366C91.8078 150.616 92.4236 145.262 91.3234 140.128C90.2232 134.994 87.4678 130.363 83.4805 126.946C80.2659 135.093 79.559 144.014 81.4505 152.565C81.4768 152.68 81.4617 152.802 81.4079 152.907C81.3542 153.013 81.2651 153.096 81.1562 153.143C81.0458 153.19 80.9225 153.195 80.8087 153.157C80.695 153.12 80.5985 153.043 80.537 152.94C75.4127 144.872 67.5426 138.931 58.3796 136.213C58.5927 136.995 58.7856 137.857 58.9886 138.761C60.5517 145.551 62.8963 155.803 76.1116 161.822C76.2462 161.848 76.3646 161.928 76.4408 162.042C76.5169 162.156 76.5445 162.296 76.5176 162.43C76.4907 162.565 76.4114 162.683 76.2972 162.76C76.183 162.836 76.0432 162.863 75.9086 162.837L75.8579 162.735Z" fill="#231F20"/>
<path d="M297.138 140.405C293.197 142.055 288.879 142.593 284.654 141.958C282.416 141.474 280.226 140.795 278.107 139.928C276.412 139.278 274.991 138.091 273.306 137.309C272.725 137.085 272.199 136.739 271.763 136.294C271.345 135.742 271.085 135.085 271.012 134.396C270.647 132.021 271.256 129.321 273.214 127.92C275.772 126.093 279.304 127.21 282.4 127.586C284.647 127.865 286.926 127.721 289.12 127.159C291.06 126.488 293.044 125.949 295.057 125.545C296.669 125.363 298.302 125.56 299.824 126.12C301.347 126.681 302.718 127.589 303.827 128.773C304.257 129.221 304.601 129.744 304.842 130.316C305.052 130.96 305.115 131.642 305.026 132.314C304.936 132.985 304.696 133.627 304.324 134.193C303.577 135.319 302.659 136.323 301.604 137.167C300.286 138.464 298.781 139.556 297.138 140.405V140.405Z" fill="white"/>
<path d="M287.912 142.709C286.789 142.717 285.668 142.622 284.562 142.425C282.292 141.929 280.071 141.233 277.924 140.344C276.968 139.946 276.05 139.46 275.184 138.893C274.511 138.462 273.812 138.072 273.093 137.725C272.453 137.472 271.872 137.088 271.387 136.599C270.901 135.973 270.598 135.225 270.515 134.437C270.068 131.564 271.012 128.834 272.92 127.474C275.153 125.88 277.995 126.337 280.634 126.784C281.243 126.885 281.862 126.987 282.461 127.058C284.647 127.328 286.865 127.183 288.998 126.631C289.698 126.459 290.409 126.225 291.099 126.002C292.362 125.539 293.667 125.199 294.996 124.987C296.688 124.794 298.402 124.999 300 125.586C301.599 126.173 303.038 127.125 304.202 128.367C304.683 128.859 305.065 129.438 305.329 130.072C305.568 130.786 305.643 131.545 305.548 132.292C305.453 133.039 305.191 133.755 304.781 134.386C304.006 135.555 303.058 136.599 301.969 137.482C300.605 138.813 299.048 139.932 297.351 140.801V140.801C294.364 142.061 291.154 142.71 287.912 142.709V142.709ZM276.858 127.383C275.673 127.326 274.501 127.646 273.509 128.296C271.56 129.676 271.215 132.356 271.479 134.285C271.526 134.882 271.745 135.453 272.108 135.929C272.497 136.314 272.965 136.612 273.478 136.802C274.23 137.173 274.962 137.582 275.671 138.03C276.486 138.565 277.349 139.024 278.249 139.4C280.336 140.268 282.496 140.947 284.704 141.43C288.826 142.052 293.04 141.529 296.884 139.918C298.483 139.086 299.951 138.022 301.239 136.761C302.253 135.944 303.139 134.979 303.867 133.899C304.195 133.398 304.408 132.83 304.49 132.237C304.573 131.644 304.523 131.04 304.344 130.468C304.117 129.954 303.797 129.486 303.401 129.088C302.344 127.967 301.04 127.109 299.594 126.58C298.147 126.052 296.598 125.868 295.067 126.043C293.804 126.236 292.563 126.556 291.363 126.997C290.662 127.22 289.932 127.454 289.191 127.646C286.938 128.225 284.597 128.377 282.289 128.093C281.669 128.012 281.05 127.91 280.421 127.809C279.246 127.577 278.055 127.434 276.858 127.383Z" fill="#231F20"/>
<path d="M303.126 133.3C305.891 132.252 308.914 132.092 311.774 132.843C312.939 133.147 313.995 133.773 314.819 134.65C315.222 135.087 315.511 135.617 315.662 136.192C315.812 136.767 315.819 137.37 315.682 137.949C315.185 139.654 313.256 140.628 312.739 142.323C312.601 142.966 312.509 143.617 312.464 144.272C312.018 147.063 309.196 149.022 306.374 149.225C303.528 149.251 300.755 148.322 298.498 146.586C296.559 145.257 291.677 142.029 293.129 139.197C294.58 136.365 300.376 134.315 303.126 133.3Z" fill="white"/>
<path d="M305.745 149.784C303.001 149.656 300.36 148.697 298.173 147.033L298.001 146.921C295.737 145.368 291.018 142.141 292.631 139.004C293.707 136.913 297.179 134.843 302.964 132.853C305.828 131.775 308.957 131.616 311.916 132.397C313.173 132.709 314.315 133.375 315.205 134.315C315.674 134.811 316.012 135.416 316.189 136.075C316.366 136.734 316.377 137.427 316.22 138.091C315.877 139.003 315.333 139.825 314.626 140.496C314.037 141.049 313.576 141.725 313.277 142.476C313.175 142.836 313.117 143.208 313.104 143.582C313.104 143.846 313.104 144.1 313.013 144.353C312.566 147.185 309.744 149.499 306.466 149.723C306.172 149.773 305.958 149.784 305.745 149.784ZM308.394 132.894C306.665 132.923 304.951 133.231 303.319 133.807V133.807C296.438 136.183 294.184 138.192 293.565 139.461C292.357 141.816 296.732 144.81 298.64 146.089L298.813 146.201C301.513 148.058 304.06 148.911 306.375 148.748C308.689 148.586 311.561 146.942 311.998 144.221C311.998 143.988 312.059 143.755 312.079 143.531C312.097 143.085 312.165 142.643 312.282 142.212C312.623 141.313 313.164 140.504 313.865 139.847C314.466 139.281 314.93 138.587 315.225 137.817C315.34 137.319 315.332 136.801 315.201 136.308C315.07 135.814 314.82 135.36 314.474 134.985C313.721 134.186 312.757 133.616 311.693 133.341C310.623 133.024 309.51 132.873 308.394 132.894Z" fill="#231F20"/>
<path d="M269.439 150.991C268.592 150.365 267.895 149.559 267.398 148.63C266.901 147.701 266.617 146.674 266.566 145.622C266.614 144.888 266.542 144.151 266.353 143.44C265.967 142.425 264.973 141.877 264.171 141.187C262.415 139.695 261.532 136.761 263.156 135.097C263.739 134.567 264.432 134.171 265.186 133.939C271.187 131.909 277.689 131.909 283.689 133.939C285.608 134.559 287.699 135.604 288.196 137.553C288.693 139.502 287.353 141.41 285.932 142.821C283.304 145.439 280.147 147.469 277.62 150.21C275.356 152.697 272.453 153.194 269.439 150.991Z" fill="white"/>
<path d="M273.245 152.89C271.767 152.836 270.346 152.313 269.185 151.397C268.28 150.726 267.537 149.861 267.01 148.865C266.483 147.869 266.186 146.768 266.14 145.642C266.14 145.46 266.14 145.267 266.14 145.084C266.163 144.591 266.105 144.097 265.967 143.623C265.626 142.983 265.126 142.441 264.516 142.049L263.917 141.572C262.73 140.54 262 139.081 261.887 137.512C261.852 137.008 261.924 136.502 262.099 136.028C262.274 135.554 262.548 135.122 262.902 134.762C263.548 134.17 264.318 133.73 265.155 133.473C271.26 131.401 277.879 131.401 283.984 133.473C286.795 134.376 288.379 135.675 288.825 137.431C289.272 139.187 288.48 141.156 286.44 143.196C285.222 144.404 283.882 145.49 282.593 146.556C281.018 147.785 279.529 149.122 278.137 150.555C277.538 151.273 276.791 151.854 275.946 152.257C275.102 152.66 274.18 152.876 273.245 152.89ZM269.733 150.555C272.423 152.514 275.031 152.27 277.274 149.834C278.696 148.375 280.219 147.019 281.832 145.774C283.101 144.759 284.42 143.653 285.597 142.476C286.775 141.298 288.176 139.431 287.729 137.685C287.374 136.284 286.003 135.218 283.557 134.427C277.662 132.43 271.274 132.43 265.379 134.427C264.686 134.615 264.046 134.962 263.511 135.442C263.256 135.711 263.062 136.031 262.941 136.381C262.821 136.731 262.776 137.103 262.811 137.472C262.911 138.766 263.516 139.969 264.496 140.821L265.054 141.268C265.821 141.766 266.433 142.469 266.82 143.298C267.019 143.885 267.102 144.506 267.064 145.125C267.064 145.297 267.064 145.47 267.064 145.642C267.125 146.606 267.396 147.545 267.857 148.393C268.318 149.241 268.958 149.979 269.733 150.555Z" fill="#231F20"/>
<path d="M275.498 150.068C275.135 150.689 274.913 151.382 274.849 152.098C274.798 153.905 276.493 155.386 278.269 155.732C280.077 155.932 281.906 155.688 283.598 155.021C287.313 153.884 291.139 152.626 294.986 153.133C296.367 153.316 297.717 153.732 299.107 153.833C299.801 153.925 300.506 153.873 301.179 153.679C301.851 153.485 302.476 153.154 303.015 152.707C303.585 152.059 303.958 151.262 304.089 150.41C304.22 149.557 304.105 148.685 303.756 147.896C303.022 146.331 301.909 144.974 300.518 143.947C298.782 142.506 296.458 140.507 294.316 139.776C292.175 139.045 289.14 139.776 287.049 140.456C284.58 141.207 282.286 142.444 280.303 144.095C278.319 145.746 276.686 147.777 275.498 150.068V150.068Z" fill="white"/>
<path d="M279.467 156.391C279.035 156.394 278.603 156.357 278.178 156.28C276.239 155.904 274.28 154.25 274.341 152.128C274.412 151.323 274.65 150.542 275.041 149.834C276.263 147.488 277.942 145.411 279.98 143.725C282.018 142.039 284.373 140.779 286.907 140.019C290.256 139.004 292.723 138.761 294.479 139.349C296.58 140.06 298.732 141.856 300.467 143.298L300.843 143.612C302.299 144.691 303.462 146.119 304.223 147.764C304.613 148.643 304.739 149.617 304.586 150.566C304.432 151.516 304.007 152.401 303.36 153.113C302.777 153.617 302.094 153.991 301.355 154.212C300.617 154.432 299.84 154.493 299.077 154.392C298.25 154.313 297.43 154.18 296.62 153.996C296.062 153.884 295.494 153.762 294.915 153.681C291.363 153.214 287.759 154.321 284.278 155.397L283.75 155.559C282.372 156.047 280.928 156.328 279.467 156.391V156.391ZM292.266 140.04C290.538 140.107 288.828 140.425 287.191 140.984C284.787 141.702 282.552 142.896 280.619 144.495C278.685 146.094 277.092 148.065 275.935 150.291C275.607 150.864 275.406 151.501 275.346 152.159C275.295 153.742 276.838 154.991 278.391 155.285C280.114 155.468 281.855 155.231 283.466 154.595L284.004 154.432C287.587 153.326 291.302 152.179 295.078 152.686C295.666 152.768 296.255 152.889 296.854 153.011C297.617 153.184 298.39 153.31 299.168 153.387C299.792 153.461 300.424 153.41 301.027 153.236C301.63 153.061 302.192 152.768 302.68 152.372C303.178 151.796 303.501 151.09 303.611 150.336C303.721 149.582 303.613 148.813 303.299 148.119C302.609 146.635 301.563 145.345 300.254 144.363L299.868 144.049C298.204 142.668 296.123 140.933 294.205 140.293C293.577 140.101 292.922 140.015 292.266 140.04V140.04Z" fill="#231F20"/>
<path d="M283.202 151.682H283.07C282.941 151.644 282.831 151.557 282.765 151.439C282.698 151.322 282.68 151.183 282.715 151.052C283.994 146.556 288.48 143.491 288.673 143.359C288.728 143.314 288.792 143.282 288.86 143.264C288.928 143.245 288.999 143.242 289.069 143.252C289.139 143.263 289.206 143.288 289.265 143.327C289.324 143.365 289.375 143.415 289.414 143.474C289.453 143.532 289.48 143.599 289.492 143.668C289.503 143.738 289.501 143.809 289.483 143.878C289.466 143.946 289.435 144.01 289.391 144.066C289.348 144.122 289.293 144.168 289.231 144.201C289.231 144.201 284.867 147.195 283.689 151.306C283.66 151.413 283.597 151.508 283.509 151.576C283.421 151.644 283.313 151.681 283.202 151.682V151.682Z" fill="#D1D3D4"/>
<path d="M290.683 135.553C290.592 135.552 290.502 135.528 290.424 135.481C290.345 135.435 290.281 135.369 290.236 135.289C290.236 135.289 288.135 131.554 285.1 130.387C285.038 130.364 284.98 130.33 284.931 130.284C284.882 130.239 284.843 130.185 284.816 130.124C284.788 130.064 284.773 129.998 284.772 129.932C284.77 129.865 284.781 129.799 284.806 129.737C284.829 129.674 284.865 129.617 284.911 129.568C284.957 129.519 285.013 129.48 285.074 129.452C285.135 129.425 285.202 129.41 285.269 129.408C285.336 129.407 285.403 129.419 285.465 129.443C288.856 130.742 291.038 134.63 291.129 134.792C291.191 134.911 291.205 135.049 291.167 135.178C291.129 135.307 291.043 135.416 290.926 135.482C290.854 135.53 290.769 135.555 290.683 135.553V135.553Z" fill="#D1D3D4"/>
<path d="M283.202 138.456H283.06C282.979 138.456 275.64 136.183 271.57 137.949C271.509 137.976 271.443 137.99 271.376 137.991C271.309 137.993 271.243 137.981 271.18 137.956C271.118 137.932 271.061 137.895 271.013 137.848C270.965 137.802 270.927 137.746 270.9 137.685C270.849 137.561 270.847 137.421 270.897 137.296C270.946 137.171 271.042 137.07 271.164 137.015C275.579 135.097 283.04 137.39 283.344 137.482C283.408 137.501 283.468 137.534 283.52 137.577C283.571 137.619 283.614 137.672 283.645 137.732C283.676 137.791 283.695 137.856 283.701 137.923C283.707 137.99 283.699 138.057 283.679 138.121C283.644 138.219 283.579 138.304 283.493 138.364C283.408 138.424 283.306 138.456 283.202 138.456V138.456Z" fill="#D1D3D4"/>
<path d="M296.255 138.984C296.339 138.611 296.295 138.22 296.132 137.874C295.968 137.529 295.693 137.248 295.352 137.076C293.423 135.848 284.45 135.259 286.359 139.319C286.697 139.991 287.219 140.553 287.864 140.941C288.509 141.329 289.25 141.527 290.003 141.511C291.505 141.511 295.626 140.588 296.255 138.984Z" fill="#231F20"/>
<path d="M290.571 136.162C292.213 136.103 293.847 136.416 295.352 137.076C295.693 137.248 295.968 137.529 296.132 137.874C296.295 138.22 296.339 138.611 296.255 138.984C295.626 140.588 291.505 141.511 290.003 141.511C289.252 141.526 288.512 141.328 287.869 140.94C287.226 140.552 286.706 139.99 286.369 139.319C285.252 136.954 287.841 136.162 290.581 136.162H290.571ZM290.581 135.147C288.774 135.147 286.42 135.462 285.506 136.944C285.258 137.371 285.128 137.856 285.128 138.35C285.128 138.843 285.258 139.328 285.506 139.755C285.926 140.601 286.577 141.31 287.384 141.8C288.19 142.291 289.12 142.542 290.063 142.526C291.332 142.526 296.336 141.725 297.27 139.349C297.449 138.757 297.417 138.121 297.178 137.551C296.939 136.98 296.508 136.511 295.961 136.223C294.296 135.455 292.474 135.087 290.642 135.147H290.581Z" fill="#231F20"/>
<path d="M139.671 162.928C135.73 164.578 131.412 165.115 127.186 164.481C124.952 163.997 122.765 163.317 120.65 162.451C118.945 161.791 117.524 160.614 115.839 159.832C115.261 159.608 114.738 159.262 114.306 158.817C113.878 158.266 113.617 157.604 113.555 156.909C113.179 154.544 113.788 151.834 115.747 150.433C118.315 148.616 121.837 149.723 124.882 150.108C127.129 150.389 129.408 150.244 131.602 149.682C133.542 149.011 135.526 148.472 137.539 148.068C139.152 147.884 140.785 148.079 142.308 148.64C143.831 149.2 145.201 150.11 146.309 151.296C146.742 151.741 147.086 152.265 147.324 152.839C147.533 153.482 147.596 154.164 147.508 154.835C147.421 155.505 147.184 156.148 146.817 156.716C146.066 157.84 145.149 158.843 144.096 159.69C142.79 160.983 141.299 162.075 139.671 162.928V162.928Z" fill="white"/>
<path d="M130.475 165.262C129.352 165.271 128.231 165.176 127.125 164.978C124.859 164.482 122.641 163.786 120.498 162.897C119.539 162.497 118.618 162.012 117.747 161.446C117.075 161.013 116.377 160.623 115.656 160.279C115.016 160.024 114.436 159.641 113.951 159.152C113.467 158.526 113.168 157.777 113.088 156.99C112.631 154.118 113.575 151.387 115.483 150.027C117.727 148.434 120.558 148.89 123.197 149.337C123.817 149.438 124.426 149.54 125.024 149.611C127.211 149.876 129.428 149.732 131.561 149.185C132.261 149.012 132.972 148.779 133.662 148.555C134.927 148.097 136.232 147.757 137.56 147.54C139.252 147.35 140.966 147.557 142.564 148.146C144.162 148.734 145.601 149.688 146.766 150.931C147.243 151.421 147.625 151.996 147.892 152.626C148.134 153.341 148.21 154.102 148.115 154.85C148.02 155.599 147.757 156.317 147.344 156.949C146.573 158.121 145.624 159.165 144.533 160.045C143.17 161.379 141.613 162.498 139.914 163.364V163.364C136.926 164.621 133.717 165.266 130.475 165.262V165.262ZM119.432 149.926C118.243 149.873 117.067 150.196 116.072 150.849C114.123 152.23 113.778 154.909 114.042 156.838C114.089 157.435 114.308 158.006 114.671 158.482C115.061 158.868 115.528 159.165 116.042 159.355C116.796 159.721 117.528 160.131 118.234 160.583C119.051 161.116 119.913 161.575 120.812 161.953C122.899 162.822 125.059 163.502 127.268 163.983C131.39 164.595 135.6 164.072 139.448 162.471V162.471C141.05 161.64 142.521 160.576 143.812 159.314C144.82 158.493 145.702 157.529 146.431 156.452C146.758 155.951 146.971 155.383 147.054 154.79C147.136 154.197 147.086 153.593 146.908 153.021C146.687 152.506 146.37 152.038 145.974 151.641C144.916 150.519 143.611 149.66 142.163 149.131C140.714 148.603 139.162 148.419 137.631 148.596C136.367 148.791 135.126 149.11 133.926 149.55C133.226 149.773 132.495 150.007 131.764 150.2C129.508 150.778 127.164 150.93 124.852 150.646C124.243 150.565 123.614 150.464 122.984 150.362C121.804 150.12 120.605 149.975 119.401 149.926H119.432Z" fill="#231F20"/>
<path d="M145.7 155.884C148.461 154.834 151.481 154.674 154.338 155.427C155.502 155.732 156.557 156.358 157.383 157.234C157.784 157.672 158.071 158.202 158.22 158.777C158.368 159.352 158.374 159.955 158.235 160.532C157.738 162.238 155.809 163.212 155.292 164.907C155.159 165.55 155.068 166.201 155.018 166.856C154.581 169.637 151.749 171.606 148.928 171.809C146.078 171.832 143.303 170.903 141.041 169.17C139.103 167.84 134.22 164.613 135.672 161.781C137.123 158.949 142.909 156.838 145.7 155.884Z" fill="white"/>
<path d="M148.288 172.327C145.542 172.202 142.898 171.246 140.706 169.586L140.534 169.475C138.27 167.922 133.561 164.694 135.174 161.558C136.24 159.467 139.712 157.396 145.497 155.407C148.366 154.333 151.496 154.174 154.459 154.95C155.701 155.28 156.824 155.956 157.697 156.899C158.166 157.395 158.504 158 158.681 158.659C158.858 159.318 158.869 160.01 158.712 160.675C158.376 161.584 157.834 162.404 157.129 163.07C156.53 163.637 156.065 164.331 155.769 165.1C155.671 165.465 155.614 165.839 155.596 166.216C155.596 166.47 155.596 166.724 155.515 166.968C155.058 169.81 152.247 172.124 148.958 172.347C148.745 172.327 148.491 172.327 148.288 172.327ZM145.832 156.361C138.94 158.736 136.697 160.746 136.068 162.014C134.86 164.369 139.234 167.353 141.143 168.632L141.315 168.754C144.015 170.601 146.563 171.464 148.877 171.302C151.191 171.139 154.074 169.495 154.5 166.775C154.5 166.541 154.561 166.318 154.581 166.085C154.603 165.638 154.674 165.195 154.794 164.765C155.131 163.867 155.67 163.058 156.368 162.4C156.968 161.834 157.433 161.14 157.728 160.37C157.846 159.873 157.839 159.354 157.708 158.86C157.577 158.365 157.326 157.912 156.977 157.538C156.223 156.739 155.259 156.169 154.196 155.894C151.442 155.178 148.534 155.334 145.873 156.34L145.832 156.361Z" fill="#231F20"/>
<path d="M111.972 173.545C111.127 172.918 110.432 172.111 109.937 171.182C109.442 170.253 109.159 169.226 109.109 168.175C109.159 167.441 109.084 166.703 108.886 165.993C108.5 164.978 107.506 164.43 106.704 163.74C104.948 162.238 104.065 159.314 105.689 157.65C106.272 157.12 106.965 156.725 107.719 156.493C113.719 154.462 120.221 154.462 126.222 156.493C128.141 157.112 130.282 158.147 130.729 160.106C131.175 162.065 129.896 163.963 128.475 165.374C125.847 167.993 122.68 170.023 120.163 172.763C117.889 175.25 114.986 175.747 111.972 173.545Z" fill="white"/>
<path d="M115.778 175.443C114.3 175.389 112.878 174.867 111.718 173.951C110.813 173.279 110.07 172.414 109.543 171.418C109.016 170.422 108.719 169.321 108.673 168.196C108.673 168.013 108.673 167.82 108.673 167.637C108.707 167.144 108.648 166.648 108.5 166.176C108.162 165.534 107.662 164.991 107.049 164.603L106.45 164.126C105.263 163.094 104.533 161.634 104.42 160.066C104.388 159.562 104.461 159.056 104.636 158.583C104.811 158.109 105.083 157.677 105.435 157.315C106.079 156.728 106.845 156.291 107.678 156.036C113.787 153.964 120.408 153.964 126.517 156.036C129.318 156.939 130.901 158.228 131.358 159.995C131.815 161.761 131.003 163.72 128.963 165.76C127.745 166.968 126.415 168.054 125.126 169.109C123.546 170.358 122.054 171.715 120.66 173.169C120.057 173.876 119.309 174.445 118.466 174.838C117.624 175.23 116.707 175.436 115.778 175.443V175.443ZM112.276 173.139C114.956 175.098 117.564 174.854 119.807 172.418C121.233 170.959 122.759 169.603 124.375 168.358C125.684 167.326 126.941 166.228 128.141 165.07C129.359 163.862 130.708 162.025 130.262 160.279C129.907 158.878 128.547 157.812 126.09 157.021C120.195 155.024 113.807 155.024 107.912 157.021C107.22 157.213 106.582 157.56 106.044 158.036C105.789 158.304 105.595 158.625 105.474 158.975C105.354 159.325 105.309 159.697 105.344 160.066C105.444 161.36 106.049 162.563 107.029 163.415L107.587 163.862C108.354 164.362 108.969 165.065 109.363 165.892C109.553 166.481 109.636 167.1 109.607 167.719V168.236C109.659 169.212 109.926 170.164 110.387 171.025C110.848 171.886 111.493 172.636 112.276 173.22V173.139Z" fill="#231F20"/>
<path d="M118.031 172.611C117.668 173.25 117.447 173.96 117.382 174.692C117.382 176.509 119.026 177.99 120.802 178.336C122.61 178.536 124.439 178.292 126.131 177.625C129.846 176.488 133.672 175.219 137.519 175.737C138.91 175.92 140.26 176.336 141.65 176.437C142.342 176.528 143.046 176.474 143.716 176.281C144.387 176.087 145.011 175.757 145.548 175.311C146.122 174.666 146.498 173.868 146.629 173.015C146.761 172.161 146.643 171.288 146.289 170.5C145.555 168.938 144.446 167.581 143.061 166.551C141.325 165.11 139.001 163.111 136.849 162.38C134.697 161.649 131.673 162.38 129.592 163.06C127.127 163.803 124.835 165.031 122.85 166.671C120.865 168.311 119.226 170.33 118.031 172.611V172.611Z" fill="white"/>
<path d="M122.01 178.975C121.574 178.98 121.138 178.939 120.711 178.853C118.782 178.488 116.813 176.823 116.884 174.712C116.945 173.905 117.184 173.122 117.584 172.418C118.801 170.064 120.48 167.978 122.52 166.287C124.561 164.595 126.921 163.332 129.46 162.573C132.809 161.558 135.286 161.314 137.032 161.903C139.133 162.613 141.295 164.41 143.031 165.851L143.396 166.166C144.851 167.242 146.013 168.666 146.776 170.307C147.168 171.187 147.296 172.162 147.145 173.113C146.994 174.064 146.569 174.951 145.923 175.666C145.339 176.168 144.656 176.542 143.918 176.762C143.18 176.982 142.404 177.045 141.64 176.945C140.817 176.866 140 176.734 139.194 176.549C138.625 176.437 138.057 176.316 137.489 176.235C133.926 175.768 130.323 176.874 126.831 177.95L126.313 178.112C124.93 178.614 123.48 178.905 122.01 178.975V178.975ZM134.799 162.623C133.071 162.692 131.361 163.01 129.724 163.567C127.321 164.288 125.087 165.485 123.156 167.085C121.224 168.686 119.633 170.658 118.478 172.885V172.885C118.15 173.458 117.949 174.095 117.889 174.753C117.889 176.336 119.381 177.584 120.934 177.879C122.657 178.066 124.399 177.829 126.009 177.189L126.527 177.026C130.12 175.92 133.824 174.773 137.61 175.28C138.209 175.362 138.798 175.473 139.387 175.595C140.129 175.761 140.882 175.873 141.64 175.93C142.264 176.008 142.897 175.958 143.5 175.784C144.104 175.609 144.666 175.314 145.152 174.915C145.653 174.339 145.978 173.631 146.09 172.876C146.201 172.12 146.094 171.349 145.781 170.652C145.088 169.173 144.042 167.887 142.736 166.907L142.361 166.602C140.696 165.212 138.615 163.476 136.687 162.826C136.073 162.652 135.436 162.573 134.799 162.593V162.623Z" fill="#231F20"/>
<path d="M125.745 174.235H125.603C125.538 174.218 125.478 174.187 125.425 174.146C125.372 174.104 125.329 174.053 125.296 173.994C125.264 173.935 125.244 173.87 125.237 173.804C125.231 173.737 125.238 173.67 125.258 173.606C126.527 169.109 131.013 166.044 131.206 165.912C131.318 165.839 131.454 165.812 131.585 165.839C131.716 165.865 131.832 165.943 131.906 166.054C131.944 166.108 131.971 166.17 131.985 166.235C131.999 166.3 132 166.367 131.988 166.432C131.976 166.497 131.95 166.56 131.914 166.615C131.877 166.67 131.83 166.718 131.774 166.754C131.723 166.754 127.41 169.749 126.232 173.859C126.203 173.967 126.14 174.062 126.052 174.129C125.964 174.197 125.856 174.234 125.745 174.235Z" fill="#D1D3D4"/>
<path d="M133.216 158.096C133.127 158.096 133.04 158.072 132.963 158.028C132.887 157.983 132.823 157.919 132.779 157.843C132.779 157.843 130.678 154.107 127.633 152.94C127.517 152.885 127.427 152.789 127.379 152.67C127.332 152.551 127.331 152.418 127.378 152.299C127.424 152.179 127.513 152.082 127.629 152.026C127.744 151.969 127.876 151.959 127.998 151.996C131.389 153.295 133.571 157.183 133.662 157.345C133.728 157.462 133.744 157.601 133.708 157.73C133.672 157.86 133.586 157.969 133.469 158.036C133.391 158.076 133.304 158.097 133.216 158.096Z" fill="#D1D3D4"/>
<path d="M125.745 161.009H125.593C125.522 161.009 118.173 158.736 114.103 160.502C114.042 160.529 113.976 160.543 113.909 160.544C113.842 160.545 113.776 160.533 113.713 160.509C113.651 160.484 113.594 160.448 113.546 160.401C113.498 160.355 113.46 160.299 113.433 160.238C113.407 160.177 113.392 160.111 113.391 160.044C113.39 159.977 113.402 159.911 113.426 159.848C113.451 159.786 113.487 159.73 113.534 159.681C113.58 159.633 113.636 159.595 113.697 159.568C118.112 157.65 125.583 159.934 125.877 160.035C125.944 160.045 126.008 160.068 126.065 160.103C126.123 160.138 126.174 160.183 126.214 160.238C126.254 160.292 126.283 160.353 126.299 160.419C126.315 160.484 126.318 160.552 126.308 160.619C126.298 160.685 126.275 160.749 126.241 160.807C126.206 160.865 126.16 160.915 126.106 160.955C126.052 160.995 125.99 161.024 125.925 161.041C125.859 161.057 125.791 161.06 125.725 161.05L125.745 161.009Z" fill="#D1D3D4"/>
<path d="M138.798 161.537C138.879 161.163 138.833 160.772 138.668 160.427C138.503 160.081 138.227 159.801 137.885 159.629C135.956 158.401 126.983 157.812 128.892 161.872C129.23 162.544 129.752 163.107 130.397 163.495C131.042 163.882 131.783 164.08 132.535 164.065C134.038 164.065 138.159 163.141 138.798 161.537Z" fill="#231F20"/>
<path d="M133.104 158.675C134.746 158.616 136.38 158.928 137.885 159.588C138.227 159.76 138.503 160.041 138.668 160.386C138.833 160.732 138.879 161.122 138.798 161.497C138.159 163.1 134.038 164.024 132.535 164.024C131.783 164.04 131.042 163.842 130.397 163.454C129.752 163.066 129.23 162.504 128.892 161.832C127.785 159.467 130.373 158.675 133.104 158.675V158.675ZM133.104 157.66C131.297 157.66 128.942 157.975 128.029 159.457C127.779 159.883 127.647 160.368 127.647 160.862C127.647 161.356 127.779 161.842 128.029 162.268C128.451 163.112 129.102 163.82 129.909 164.31C130.715 164.8 131.643 165.053 132.586 165.039C133.845 165.039 138.849 164.237 139.793 161.862C139.966 161.27 139.931 160.636 139.692 160.067C139.454 159.498 139.027 159.028 138.483 158.736C136.815 157.966 134.99 157.598 133.155 157.66H133.104Z" fill="#231F20"/>
<path d="M219.724 160.4C219.724 160.4 218.293 140.029 227.773 126.215C227.773 126.215 235.974 139.532 234.066 153.955C234.066 153.955 238.928 134.376 246.672 127.636C246.672 127.636 256.091 138.801 250.732 151.174L258.294 142.405C258.294 142.405 262.263 147.845 255.756 159.477" fill="white"/>
<path d="M219.724 160.908C219.596 160.908 219.473 160.861 219.379 160.774C219.285 160.687 219.227 160.569 219.216 160.441C219.216 160.228 217.887 139.735 227.336 125.931C227.385 125.861 227.45 125.805 227.527 125.768C227.603 125.73 227.688 125.713 227.773 125.718C227.856 125.72 227.938 125.742 228.01 125.783C228.083 125.823 228.144 125.881 228.189 125.951C228.26 126.073 234.756 136.792 234.837 149.296C236.766 143.054 240.785 132.041 246.327 127.22C246.378 127.176 246.438 127.143 246.502 127.122C246.566 127.102 246.633 127.094 246.7 127.1C246.767 127.105 246.833 127.124 246.892 127.155C246.952 127.187 247.005 127.229 247.048 127.281C247.129 127.383 255.34 137.299 252.123 148.769L257.929 142.049C257.975 141.989 258.035 141.942 258.104 141.912C258.173 141.882 258.249 141.87 258.324 141.877C258.4 141.878 258.474 141.897 258.541 141.933C258.608 141.968 258.666 142.018 258.71 142.08C258.883 142.313 262.77 147.916 256.213 159.7C256.145 159.815 256.036 159.899 255.907 159.935C255.778 159.971 255.641 159.956 255.523 159.893C255.406 159.827 255.32 159.717 255.284 159.588C255.248 159.458 255.264 159.32 255.33 159.203C260.405 150.139 258.954 144.932 258.213 143.267L251.108 151.468C251.036 151.575 250.925 151.65 250.799 151.677C250.672 151.704 250.541 151.68 250.431 151.612C250.322 151.543 250.244 151.435 250.213 151.31C250.182 151.185 250.201 151.052 250.265 150.941C254.863 140.314 248.235 130.448 246.601 128.347C239.283 135.218 234.594 153.854 234.553 154.047C234.518 154.17 234.438 154.276 234.33 154.346C234.221 154.415 234.091 154.442 233.964 154.422C233.838 154.395 233.726 154.322 233.651 154.217C233.576 154.112 233.543 153.982 233.558 153.854C235.172 141.623 229.336 130.052 227.732 127.149C218.953 140.638 220.201 160.137 220.221 160.34C220.225 160.406 220.216 160.473 220.195 160.536C220.173 160.599 220.139 160.658 220.095 160.708C220.05 160.758 219.996 160.798 219.936 160.828C219.876 160.857 219.811 160.874 219.744 160.878L219.724 160.908Z" fill="#231F20"/>
</svg>
