<svg width="144" height="190" viewBox="0 0 144 190" fill="none" xmlns="http://www.w3.org/2000/svg">
<path d="M93.315 90.3817C91.7722 99.3137 83.6217 105.373 75.1059 103.902C66.59 102.43 60.8959 94.0053 62.4691 85.0632C64.0424 76.121 73.7153 61.0686 82.2312 62.5302C90.747 63.9918 94.8882 81.4396 93.315 90.3817Z" fill="#FCEFC2"/>
<path d="M77.684 105.15C76.7724 105.147 75.8625 105.069 74.9638 104.917C65.91 103.353 59.8708 94.3809 61.5049 84.9008C63.0477 75.9383 72.9439 59.9115 82.4342 61.5558C86.6363 62.2764 90.2294 66.4683 92.5334 73.35C94.4518 79.0645 95.1623 85.8244 94.3401 90.605C93.7065 94.5961 91.6921 98.2382 88.6482 100.896C85.6043 103.554 81.7241 105.06 77.684 105.15V105.15ZM81.135 63.4538C73.8676 63.4538 65.0371 76.5372 63.5349 85.2357C62.0936 93.6095 67.3919 101.537 75.3393 102.907C83.2868 104.277 90.9298 98.5728 92.3711 90.2092C93.1323 85.8345 92.4319 79.3081 90.6455 73.9692C88.6155 67.8792 85.5096 64.1034 82.1195 63.5248C81.7943 63.4706 81.4647 63.4468 81.135 63.4538V63.4538Z" fill="#816A3C"/>
<path d="M63.0883 84.6064C64.3077 88.7991 63.8117 93.3045 61.7093 97.1315C59.6069 100.958 56.0703 103.794 51.8776 105.013C47.6849 106.232 43.1795 105.736 39.3525 103.634C35.5256 101.532 32.6905 97.995 31.4711 93.8023C28.9336 85.0632 31.4 67.1281 40.129 64.5906C48.858 62.0531 60.5508 75.8774 63.0883 84.6064Z" fill="#FCEFC2"/>
<path d="M47.2543 106.693C43.4746 106.682 39.8 105.448 36.7795 103.176C33.759 100.904 31.555 97.715 30.4967 94.0865C29.1467 89.4378 29.1772 82.5967 30.588 76.6387C32.2729 69.5337 35.5615 64.8647 39.8448 63.6162C44.1281 62.3678 49.3858 64.5195 54.6334 69.6453C59.0182 73.9184 62.7534 79.6836 64.0627 84.3222C65.3503 88.7732 64.8199 93.5533 62.588 97.6138C60.356 101.674 56.6047 104.684 52.1568 105.982C50.5651 106.453 48.9141 106.692 47.2543 106.693V106.693ZM42.291 65.3113C41.6561 65.3059 41.0238 65.3913 40.4132 65.565C36.9115 66.58 34.0492 70.7922 32.5571 77.1055C31.2478 82.6576 31.2072 89.2855 32.4455 93.5181C33.5895 97.4524 36.2496 100.771 39.8406 102.744C43.4315 104.717 47.6592 105.183 51.5934 104.039C55.5277 102.894 58.8464 100.234 60.8194 96.6434C62.7923 93.0525 63.258 88.8249 62.1139 84.8906C60.8756 80.6276 57.3028 75.0857 53.2225 71.1069C49.3655 67.3413 45.4984 65.3113 42.291 65.3113V65.3113Z" fill="#816A3C"/>
<path d="M121.522 94.0967C121.522 98.463 119.787 102.65 116.7 105.738C113.612 108.825 109.425 110.56 105.059 110.56C100.692 110.56 96.5047 108.825 93.4173 105.738C90.3298 102.65 88.5953 98.463 88.5953 94.0967C88.5953 84.9617 95.9642 68.4679 105.059 68.4679C114.153 68.4679 121.522 85.0023 121.522 94.0967Z" fill="#FCEFC2"/>
<path d="M105.059 111.575C100.425 111.57 95.9821 109.726 92.7055 106.45C89.4288 103.173 87.5856 98.7305 87.5803 94.0967C87.5803 84.9617 94.9593 67.4529 105.059 67.4529C115.158 67.4529 122.537 84.9718 122.537 94.0967C122.529 98.7297 120.685 103.171 117.409 106.447C114.133 109.723 109.692 111.567 105.059 111.575V111.575ZM105.059 69.4829C96.6036 69.4829 89.6103 85.7838 89.6103 94.0967C89.6103 98.1938 91.2378 102.123 94.135 105.02C97.0321 107.917 100.961 109.545 105.059 109.545C109.156 109.545 113.085 107.917 115.982 105.02C118.879 102.123 120.507 98.1938 120.507 94.0967C120.507 85.7838 113.503 69.4829 105.059 69.4829V69.4829Z" fill="#816A3C"/>
<path d="M100.501 103.353C100.501 107.72 98.7667 111.907 95.6792 114.995C92.5917 118.082 88.4042 119.817 84.0379 119.817C79.6715 119.817 75.484 118.082 72.3966 114.995C69.3091 111.907 67.5746 107.72 67.5746 103.353C67.5746 94.2185 74.9435 77.7247 84.0379 77.7247C93.1323 77.7247 100.501 94.2591 100.501 103.353Z" fill="#FCEFC2"/>
<path d="M84.0379 120.832C79.4048 120.824 74.9638 118.98 71.6878 115.704C68.4117 112.428 66.5677 107.987 66.5596 103.353C66.5596 94.2185 73.9387 76.7097 84.0379 76.7097C94.1372 76.7097 101.516 94.2286 101.516 103.353C101.508 107.987 99.6641 112.428 96.388 115.704C93.112 118.98 88.671 120.824 84.0379 120.832V120.832ZM84.0379 78.7397C75.583 78.7397 68.5896 95.0406 68.5896 103.353C68.5896 107.451 70.2172 111.38 73.1143 114.277C76.0114 117.174 79.9408 118.802 84.0379 118.802C88.135 118.802 92.0644 117.174 94.9615 114.277C97.8586 111.38 99.4862 107.451 99.4862 103.353C99.4862 95 92.4929 78.76 84.0379 78.76V78.7397Z" fill="#816A3C"/>
<path d="M46.9092 98.4003C48.0725 102.576 47.5419 107.042 45.4326 110.829C43.3234 114.616 39.8056 117.419 35.6429 118.628C31.4802 119.837 27.0085 119.356 23.1984 117.289C19.3883 115.222 16.5473 111.735 15.2919 107.586C12.7544 98.857 15.2107 80.922 23.9397 78.3845C32.6687 75.847 44.3717 89.6713 46.9092 98.4003Z" fill="#FCEFC2"/>
<path d="M31.0752 120.477C27.2943 120.47 23.6173 119.239 20.5958 116.966C17.5744 114.693 15.3715 111.501 14.3176 107.87C12.9676 103.232 12.9981 96.3804 14.3988 90.4325C16.0938 83.2768 19.3722 78.6585 23.6555 77.4101C27.9388 76.1616 33.1965 78.3033 38.4542 83.4392C42.8289 87.7123 46.5743 93.4775 47.8836 98.1161C49.174 102.567 48.6449 107.348 46.4125 111.41C44.1802 115.471 40.4271 118.48 35.9776 119.776C34.3843 120.238 32.7341 120.474 31.0752 120.477ZM26.1626 79.095C25.5071 79.0907 24.8544 79.1796 24.2239 79.3589C20.7323 80.3739 17.87 84.5861 16.378 90.8994C15.0686 96.4413 15.028 103.079 16.2663 107.302C16.8139 109.271 17.7467 111.111 19.0106 112.717C20.2745 114.323 21.8444 115.662 23.6295 116.657C25.4145 117.651 27.3792 118.282 29.4097 118.512C31.4403 118.743 33.4963 118.568 35.4587 117.998C37.4211 117.428 39.2509 116.474 40.8422 115.192C42.4335 113.91 43.7546 112.324 44.7289 110.528C45.7033 108.732 46.3116 106.76 46.5186 104.727C46.7256 102.694 46.5272 100.64 45.9348 98.6845C43.7932 91.3156 34.039 79.095 26.1626 79.095V79.095Z" fill="#816A3C"/>
<path d="M72.9338 99.4559C72.9338 103.822 71.1993 108.01 68.1118 111.097C65.0243 114.185 60.8368 115.919 56.4705 115.919C52.1042 115.919 47.9167 114.185 44.8292 111.097C41.7417 108.01 40.0072 103.822 40.0072 99.4559C40.0072 90.3209 47.3761 73.8271 56.4705 73.8271C65.5649 73.8271 72.9338 90.3615 72.9338 99.4559Z" fill="#FCEFC2"/>
<path d="M56.4705 116.934C51.8374 116.926 47.3964 115.082 44.1204 111.806C40.8443 108.53 39.0002 104.089 38.9922 99.4559C38.9922 90.3209 46.3712 72.8121 56.4705 72.8121C66.5697 72.8121 73.9488 90.331 73.9488 99.4559C73.9434 104.09 72.1002 108.532 68.8236 111.809C65.5469 115.086 61.1044 116.929 56.4705 116.934ZM56.4705 74.8421C48.0155 74.8421 41.0222 91.143 41.0222 99.4559C41.0222 103.553 42.6498 107.482 45.5469 110.379C48.444 113.277 52.3733 114.904 56.4705 114.904C60.5676 114.904 64.497 113.277 67.3941 110.379C70.2912 107.482 71.9188 103.553 71.9188 99.4559C71.9188 91.143 64.895 74.8421 56.4705 74.8421V74.8421Z" fill="#816A3C"/>
<path d="M131.469 109.809C130.24 113.999 127.397 117.529 123.565 119.623C119.733 121.717 115.227 122.203 111.037 120.974C106.847 119.745 103.317 116.902 101.223 113.07C99.129 109.238 98.643 104.732 99.8719 100.542C102.44 91.8129 114.163 78.0292 122.892 80.587C131.621 83.1448 134.027 101.09 131.469 109.809Z" fill="#FCEFC2"/>
<path d="M115.696 122.659C114.019 122.658 112.351 122.419 110.743 121.948C106.296 120.642 102.55 117.623 100.329 113.556C98.1075 109.488 97.5927 104.705 98.8975 100.258C100.268 95.6191 103.972 89.8641 108.367 85.6011C113.635 80.5261 118.893 78.354 123.176 79.6126C132.859 82.4546 135.011 101.344 132.443 110.063C131.379 113.682 129.173 116.86 126.155 119.123C123.137 121.385 119.468 122.611 115.696 122.618V122.659ZM120.72 81.2975C117.523 81.2975 113.615 83.3275 109.799 87.0627C105.739 91.0313 102.125 96.5631 100.867 100.826C100.295 102.773 100.113 104.813 100.331 106.83C100.548 108.847 101.16 110.802 102.133 112.582C103.106 114.363 104.42 115.934 106 117.207C107.579 118.479 109.395 119.428 111.341 119.999C115.273 121.153 119.502 120.697 123.097 118.733C124.878 117.76 126.449 116.446 127.722 114.867C128.995 113.287 129.944 111.471 130.515 109.525C133.123 100.643 130.271 83.8045 122.628 81.5614C122.009 81.3801 121.366 81.2912 120.72 81.2975V81.2975Z" fill="#816A3C"/>
<path d="M6.96895 102.481C6.8745 102.491 6.77919 102.491 6.68475 102.481C6.48812 102.444 6.30063 102.369 6.13298 102.26C5.96534 102.151 5.82085 102.01 5.70774 101.845C5.59463 101.68 5.51513 101.494 5.47378 101.299C5.43243 101.103 5.43004 100.901 5.46675 100.704C8.59521 85.9922 13.404 71.6884 19.7986 58.0743C33.43 29.7558 51.6391 14.815 72.4974 14.815C93.3556 14.815 111.585 29.7558 125.186 57.9931C131.589 71.6212 136.399 85.9429 139.518 100.674C139.564 101.057 139.463 101.443 139.235 101.754C139.007 102.065 138.67 102.278 138.291 102.351C137.912 102.423 137.52 102.348 137.194 102.143C136.868 101.937 136.632 101.615 136.534 101.242C136.371 100.41 120.141 17.8702 72.4974 17.8702C24.8533 17.8702 8.61325 100.41 8.461 101.242C8.39315 101.589 8.20758 101.902 7.93569 102.127C7.66379 102.353 7.32227 102.478 6.96895 102.481V102.481Z" fill="#816A3C"/>
<path d="M142.898 126.587C142.914 131.022 142.609 135.452 141.984 139.843C141.741 141.467 141.467 143.04 141.142 144.562C139.878 150.786 137.561 156.749 134.291 162.193C122.263 181.722 98.8671 188.147 72 188.147C45.133 188.147 21.7372 181.722 9.70947 162.193C6.43949 156.749 4.12249 150.786 2.85822 144.562C2.53342 143.04 2.25937 141.467 2.01577 139.843C1.391 135.452 1.08569 131.022 1.10226 126.587C1.10226 125.572 1.10226 124.557 1.10226 123.491C1.45583 114.048 2.7651 104.666 5.01002 95.4872L18.9561 108.439L30.1211 94.868L46.1175 108.276L58.805 94.868L76.669 106.652L88.3821 94.868L103.607 106.733L116.274 91.0618L127.967 106.48L138.99 94.1372C140.716 102.318 142.624 115.716 142.837 123.491C142.877 124.537 142.898 125.572 142.898 126.587Z" fill="#68E1FD"/>
<path d="M72 189.162C40.464 189.162 19.8087 180.514 8.84671 162.772C5.51083 157.201 3.15247 151.101 1.87366 144.735C1.54886 143.263 1.27481 141.69 1.01091 139.944C0.381858 135.506 0.0731733 131.029 0.0872526 126.546C0.0872526 125.531 0.0872526 124.516 0.0872526 123.42C0.429502 113.923 1.73886 104.485 3.99501 95.2538C4.03512 95.0806 4.11999 94.9211 4.24111 94.7911C4.36223 94.661 4.51536 94.5651 4.6852 94.5128C4.85969 94.4564 5.04621 94.4483 5.22493 94.4894C5.40365 94.5305 5.56789 94.6193 5.7002 94.7463L18.8952 106.926L29.37 94.2286C29.4552 94.1251 29.5601 94.0396 29.6786 93.9769C29.797 93.9142 29.9267 93.8755 30.0602 93.8632C30.1946 93.8502 30.3303 93.8641 30.4593 93.9042C30.5883 93.9443 30.7079 94.0097 30.8113 94.0967L46.0363 106.886L58.125 94.1779C58.2882 94.0059 58.5065 93.8965 58.742 93.8687C58.9774 93.8409 59.2152 93.8964 59.414 94.0256L76.5675 105.353L87.7325 94.188C87.9077 94.0137 88.1404 93.9093 88.3871 93.8943C88.6337 93.8794 88.8774 93.9549 89.0723 94.1068L103.546 105.353L115.584 90.4528C115.68 90.335 115.8 90.2402 115.937 90.1752C116.074 90.1102 116.224 90.0767 116.376 90.0772C116.529 90.0792 116.68 90.1158 116.817 90.1843C116.954 90.2529 117.074 90.3516 117.168 90.4731L128.119 104.917L138.269 93.4978C138.393 93.3567 138.553 93.2526 138.732 93.197C138.912 93.1415 139.103 93.1367 139.284 93.1832C139.466 93.2317 139.63 93.3294 139.759 93.4656C139.888 93.6017 139.977 93.771 140.015 93.9546C141.71 102.004 143.669 115.594 143.882 123.501C143.882 124.516 143.933 125.592 143.933 126.617C143.947 131.1 143.638 135.577 143.009 140.015C142.746 141.771 142.471 143.334 142.147 144.806C140.859 151.144 138.501 157.216 135.174 162.761C124.191 180.514 103.536 189.162 72 189.162ZM5.5581 97.4259C3.59213 105.995 2.45685 114.734 2.16801 123.522C2.16801 124.537 2.16801 125.552 2.16801 126.567C2.12223 130.945 2.39361 135.321 2.98001 139.66C3.23376 141.365 3.50782 142.888 3.81232 144.319C5.05705 150.431 7.33267 156.286 10.5418 161.635C21.0978 178.778 41.1846 187.101 71.9594 187.101C102.734 187.101 122.821 178.778 133.377 161.635C136.586 156.286 138.862 150.431 140.107 144.319C140.411 142.888 140.685 141.365 140.939 139.66C141.556 135.32 141.858 130.94 141.842 126.556C141.842 125.541 141.842 124.526 141.791 123.511C141.599 116.325 139.934 104.379 138.371 96.3093L128.84 107.18C128.739 107.292 128.615 107.38 128.477 107.438C128.338 107.496 128.188 107.522 128.038 107.515C127.89 107.509 127.745 107.47 127.614 107.401C127.482 107.333 127.367 107.237 127.277 107.119L116.356 92.7264L104.48 107.373C104.313 107.582 104.069 107.716 103.803 107.747C103.537 107.777 103.269 107.701 103.059 107.535L88.5141 96.2282L77.4404 107.393C77.2752 107.559 77.0576 107.663 76.8245 107.687C76.5914 107.711 76.3571 107.654 76.1615 107.525L59.008 96.2079L46.828 108.997C46.6503 109.185 46.4074 109.299 46.1489 109.314C45.8904 109.329 45.6359 109.244 45.4375 109.078L30.2125 96.3296L19.6565 109.108C19.5689 109.212 19.4614 109.297 19.3405 109.358C19.2195 109.42 19.0875 109.456 18.9522 109.466C18.8169 109.475 18.681 109.457 18.5527 109.413C18.4244 109.37 18.3061 109.3 18.205 109.21L5.5581 97.4259Z" fill="#816A3C"/>
<path d="M142.898 126.587C142.914 131.022 142.609 135.452 141.984 139.843C141.741 141.467 141.467 143.04 141.142 144.562C139.878 150.786 137.561 156.749 134.291 162.193H9.70947C6.43949 156.749 4.12249 150.786 2.85822 144.562C2.53342 143.04 2.25937 141.467 2.01577 139.843C1.391 135.452 1.08569 131.022 1.10226 126.587C1.10226 125.572 1.10226 124.557 1.10226 123.491H142.847C142.877 124.537 142.898 125.572 142.898 126.587Z" fill="white"/>
<path d="M134.291 163.208H9.70946C9.53697 163.208 9.36723 163.165 9.21627 163.081C9.06532 162.998 8.93813 162.877 8.84671 162.731C5.51512 157.173 3.1569 151.087 1.87366 144.735C1.54886 143.263 1.27481 141.69 1.01091 139.944C0.381858 135.506 0.0731733 131.029 0.0872526 126.546C0.0872526 125.531 0.0872526 124.516 0.0872526 123.42C0.0872526 123.151 0.194189 122.893 0.384538 122.702C0.574888 122.512 0.833058 122.405 1.10225 122.405H142.847C143.116 122.405 143.374 122.512 143.565 122.702C143.755 122.893 143.862 123.151 143.862 123.42C143.862 124.435 143.913 125.521 143.913 126.546C143.927 131.029 143.618 135.506 142.989 139.944C142.725 141.7 142.451 143.263 142.126 144.735C140.839 151.073 138.481 157.145 135.153 162.69C135.067 162.844 134.942 162.973 134.791 163.064C134.639 163.154 134.467 163.204 134.291 163.208ZM10.288 161.178H133.712C136.765 155.959 138.939 150.274 140.147 144.349C140.452 142.918 140.726 141.396 140.979 139.69C141.597 135.35 141.899 130.971 141.883 126.587C141.883 125.907 141.883 125.206 141.883 124.506H2.1477C2.1477 125.206 2.1477 125.907 2.1477 126.587C2.10964 130.959 2.3878 135.328 2.98001 139.66C3.23376 141.365 3.50782 142.888 3.81232 144.319C5.02973 150.256 7.21762 155.952 10.288 161.178V161.178Z" fill="#816A3C"/>
<path d="M63.5856 17.7179L55.4047 37.9367L63.5856 34.9221L68.1328 39.7129L72 15.7691L63.5856 17.7179Z" fill="#68E1FD"/>
<path d="M68.1329 40.7279C67.9944 40.7288 67.8573 40.7013 67.7299 40.6472C67.6024 40.5931 67.4874 40.5135 67.3919 40.4133L63.3319 36.1097L55.76 38.8908C55.576 38.9575 55.3767 38.9696 55.186 38.9257C54.9953 38.8817 54.8214 38.7836 54.6852 38.6431C54.549 38.5026 54.4563 38.3257 54.4183 38.1338C54.3803 37.9418 54.3986 37.743 54.4709 37.5612L62.6518 17.3322C62.7127 17.1811 62.8091 17.0469 62.9327 16.9409C63.0564 16.8349 63.2038 16.7603 63.3624 16.7232L71.7666 14.815C71.9258 14.7761 72.0921 14.7764 72.2513 14.8159C72.4104 14.8553 72.5576 14.9327 72.6803 15.0414C72.803 15.1502 72.8976 15.287 72.9559 15.4402C73.0141 15.5935 73.0344 15.7586 73.015 15.9213L69.1479 39.8754C69.1177 40.0638 69.0351 40.24 68.9094 40.3836C68.7838 40.5272 68.6201 40.6325 68.4374 40.6873C68.3388 40.7176 68.2359 40.7313 68.1329 40.7279V40.7279ZM63.5857 33.9071C63.7241 33.9063 63.8612 33.9338 63.9886 33.9879C64.1161 34.042 64.2311 34.1216 64.3266 34.2218L67.4528 37.5307L70.7617 17.0988L64.3368 18.5806L57.2318 36.2011L63.2609 33.9782C63.3633 33.9332 63.4737 33.909 63.5857 33.9071V33.9071Z" fill="#816A3C"/>
<path d="M80.4143 17.7179L88.5953 37.9367L80.4143 34.9221L75.8671 39.7129L72 15.7691L80.4143 17.7179Z" fill="#68E1FD"/>
<path d="M75.8671 40.7279C75.7696 40.7435 75.6703 40.7435 75.5728 40.7279C75.39 40.6731 75.2264 40.5678 75.1007 40.4242C74.975 40.2805 74.8924 40.1044 74.8623 39.916L70.985 15.9213C70.9656 15.7586 70.9859 15.5935 71.0441 15.4402C71.1024 15.287 71.197 15.1502 71.3197 15.0414C71.4424 14.9327 71.5896 14.8553 71.7487 14.8159C71.9079 14.7764 72.0742 14.7761 72.2334 14.815L80.6376 16.7638C80.7962 16.8009 80.9436 16.8755 81.0673 16.9815C81.1909 17.0875 81.2873 17.2217 81.3482 17.3728L89.5291 37.6017C89.5906 37.7814 89.6004 37.9747 89.5575 38.1597C89.5147 38.3447 89.4208 38.514 89.2865 38.6482C89.1522 38.7825 88.9829 38.8764 88.798 38.9193C88.613 38.9622 88.4197 38.9523 88.24 38.8908L80.6884 36.13L76.6284 40.4336C76.5288 40.5327 76.4097 40.61 76.2787 40.6607C76.1476 40.7113 76.0075 40.7342 75.8671 40.7279V40.7279ZM73.2383 17.0988L76.5472 37.5307L79.6734 34.2218C79.811 34.0798 79.9871 33.9811 80.1801 33.9379C80.373 33.8946 80.5744 33.9086 80.7595 33.9782L86.7886 36.2011L79.6836 18.5806L73.2383 17.0988Z" fill="#816A3C"/>
<path d="M56.3588 25.3609L68.1329 19.4739V8.30886L56.3588 2.42186C53.3138 0.909511 49.5583 2.81771 49.5583 5.87286V21.92C49.5583 24.965 53.324 26.8732 56.3588 25.3609Z" fill="#68E1FD"/>
<path d="M54.1055 26.9037C52.988 26.9021 51.8924 26.5931 50.9387 26.0105C50.2233 25.5976 49.6268 25.0068 49.2071 24.2955C48.7874 23.5841 48.5588 22.7763 48.5433 21.9505V5.83226C48.5597 5.00665 48.7888 4.19923 49.2084 3.48802C49.628 2.77681 50.224 2.18586 50.9387 1.77226C51.8172 1.2371 52.8168 0.933159 53.8445 0.888787C54.8721 0.844416 55.8943 1.06106 56.8156 1.51851L68.5896 7.40551C68.7585 7.49063 68.9003 7.62127 68.9989 7.78268C69.0976 7.94409 69.1492 8.12985 69.1478 8.31901V19.484C69.1473 19.6714 69.0948 19.8551 68.9963 20.0145C68.8977 20.174 68.757 20.303 68.5896 20.3874L56.775 26.2642C55.9454 26.6777 55.0324 26.8964 54.1055 26.9037ZM54.0954 2.85831C53.3579 2.861 52.635 3.06451 52.0045 3.44701C51.5796 3.68632 51.2242 4.03206 50.9733 4.45025C50.7223 4.86844 50.5845 5.3447 50.5733 5.83226V21.92C50.5853 22.4061 50.7235 22.8806 50.9744 23.2971C51.2254 23.7135 51.5803 24.0574 52.0045 24.2951C52.5883 24.6472 53.2513 24.8467 53.9325 24.8751C54.6137 24.9035 55.291 24.7599 55.9021 24.4575L67.1178 18.875V8.92801L55.9021 3.31506C55.3434 3.02479 54.7249 2.86842 54.0954 2.85831V2.85831Z" fill="#816A3C"/>
<path d="M58.0945 18.7024C57.855 18.7046 57.6225 18.622 57.438 18.4692C57.2536 18.3165 57.1291 18.1034 57.0865 17.8677C57.044 17.632 57.0862 17.3889 57.2057 17.1813C57.3251 16.9737 57.5141 16.815 57.7392 16.7333L64.6818 14.0943L55.1713 11.8512C54.9106 11.7885 54.6853 11.6253 54.5446 11.3971C54.4039 11.1689 54.3591 10.8943 54.4202 10.6332C54.4501 10.5032 54.5054 10.3804 54.5828 10.2717C54.6602 10.1631 54.7583 10.0708 54.8714 10.0001C54.9845 9.92939 55.1105 9.88168 55.242 9.85969C55.3736 9.83771 55.5082 9.84187 55.6382 9.87194L68.3663 12.9169C68.5782 12.967 68.7684 13.0839 68.9087 13.2503C69.0491 13.4167 69.1323 13.6238 69.1459 13.8411C69.1596 14.0584 69.103 14.2743 68.9846 14.457C68.8661 14.6397 68.692 14.7794 68.4881 14.8556L58.4599 18.672C58.3413 18.7062 58.2171 18.7165 58.0945 18.7024V18.7024Z" fill="#816A3C"/>
<path d="M87.6411 25.3609L75.8671 19.4739V8.30886L87.6411 2.42186C90.6861 0.909511 94.4416 2.81771 94.4416 5.87286V21.92C94.4416 24.965 90.676 26.8732 87.6411 25.3609Z" fill="#68E1FD"/>
<path d="M89.8944 26.9037C88.9538 26.9026 88.0262 26.6838 87.1844 26.2642L75.4104 20.3772C75.243 20.2929 75.1022 20.1638 75.0037 20.0044C74.9052 19.8449 74.8527 19.6613 74.8521 19.4738V8.30884C74.8508 8.11968 74.9024 7.93392 75.001 7.77251C75.0997 7.6111 75.2415 7.48046 75.4104 7.39535L87.1844 1.50835C88.1057 1.0509 89.1278 0.834253 90.1555 0.878625C91.1831 0.922997 92.1828 1.22694 93.0612 1.7621C93.776 2.17569 94.3719 2.76665 94.7916 3.47786C95.2112 4.18907 95.4402 4.99649 95.4566 5.8221V21.92C95.4412 22.7458 95.2126 23.5536 94.7928 24.265C94.3731 24.9764 93.7766 25.5672 93.0612 25.98C92.1107 26.5734 91.0149 26.893 89.8944 26.9037V26.9037ZM88.0979 24.4473C88.7089 24.7497 89.3863 24.8933 90.0675 24.8649C90.7486 24.8365 91.4117 24.6371 91.9955 24.2849C92.4182 24.0482 92.7722 23.7058 93.0231 23.2913C93.2739 22.8768 93.413 22.4043 93.4266 21.92V5.83225C93.4154 5.34469 93.2776 4.86842 93.0267 4.45023C92.7758 4.03204 92.4204 3.68631 91.9955 3.447C91.4117 3.09486 90.7486 2.8954 90.0675 2.86701C89.3863 2.83863 88.7089 2.98224 88.0979 3.2846L76.8821 8.89754V18.875L88.0979 24.4473Z" fill="#816A3C"/>
<path d="M85.9055 18.7024C85.7802 18.7035 85.6559 18.6794 85.5401 18.6314L75.5119 14.815C75.3079 14.7388 75.1339 14.5991 75.0154 14.4164C74.897 14.2337 74.8404 14.0178 74.854 13.8005C74.8677 13.5832 74.9509 13.3761 75.0912 13.2097C75.2316 13.0433 75.4218 12.9264 75.6337 12.8763L88.3618 9.83134C88.4918 9.80126 88.6264 9.7971 88.758 9.81909C88.8895 9.84108 89.0155 9.88879 89.1286 9.95949C89.2417 10.0302 89.3398 10.1225 89.4172 10.2311C89.4946 10.3398 89.5499 10.4626 89.5798 10.5926C89.6409 10.8537 89.5961 11.1283 89.4554 11.3565C89.3147 11.5847 89.0894 11.7479 88.8287 11.8106L79.3182 14.0537L86.2607 16.6927C86.4859 16.7744 86.6749 16.9331 86.7943 17.1407C86.9138 17.3483 86.956 17.5914 86.9134 17.8271C86.8709 18.0628 86.7464 18.2758 86.562 18.4286C86.3775 18.5814 86.145 18.664 85.9055 18.6618V18.7024Z" fill="#816A3C"/>
<path d="M74.5883 7.37505H69.4219C67.9981 7.37505 66.8438 8.5293 66.8438 9.95315V17.7889C66.8438 19.2128 67.9981 20.367 69.4219 20.367H74.5883C76.0121 20.367 77.1664 19.2128 77.1664 17.7889V9.95315C77.1664 8.5293 76.0121 7.37505 74.5883 7.37505Z" fill="#68E1FD"/>
<path d="M74.5883 21.382H69.4117C68.4606 21.3794 67.5492 20.9996 66.8776 20.3261C66.206 19.6525 65.8288 18.7401 65.8288 17.7889V9.943C65.8288 8.99274 66.2063 8.08141 66.8782 7.40947C67.5502 6.73754 68.4615 6.36005 69.4117 6.36005H74.5883C75.5385 6.36005 76.4498 6.73754 77.1218 7.40947C77.7937 8.08141 78.1712 8.99274 78.1712 9.943V17.7889C78.1712 18.7401 77.794 19.6525 77.1224 20.3261C76.4507 20.9996 75.5394 21.3794 74.5883 21.382V21.382ZM69.4117 8.39005C69.0007 8.39271 68.6072 8.55718 68.3166 8.84784C68.0259 9.1385 67.8615 9.53195 67.8588 9.943V17.7889C67.8588 18.2018 68.0221 18.5978 68.313 18.8907C68.604 19.1835 68.9989 19.3494 69.4117 19.352H74.5883C75.001 19.3494 75.396 19.1835 75.687 18.8907C75.9779 18.5978 76.1412 18.2018 76.1412 17.7889V9.943C76.1385 9.53195 75.9741 9.1385 75.6834 8.84784C75.3928 8.55718 74.9993 8.39271 74.5883 8.39005H69.4117Z" fill="#816A3C"/>
<path d="M141.142 145.577H2.85821C2.62218 145.583 2.39169 145.506 2.20643 145.359C2.02117 145.213 1.89273 145.006 1.84321 144.776C1.51841 143.304 1.24436 141.731 0.980456 139.985C0.958376 139.839 0.968193 139.691 1.00922 139.55C1.05024 139.408 1.12149 139.278 1.21804 139.166C1.31459 139.055 1.43411 138.967 1.56835 138.906C1.70259 138.846 1.84833 138.816 1.99546 138.818H142.035C142.182 138.816 142.328 138.846 142.462 138.906C142.596 138.967 142.716 139.055 142.812 139.166C142.909 139.278 142.98 139.408 143.021 139.55C143.062 139.691 143.072 139.839 143.05 139.985C142.786 141.741 142.512 143.304 142.187 144.776C142.137 145.012 142.004 145.222 141.812 145.369C141.621 145.516 141.383 145.59 141.142 145.577ZM3.6905 143.547H140.309C140.482 142.695 140.644 141.802 140.807 140.848H3.19316C3.35556 141.802 3.51795 142.705 3.6905 143.547V143.547Z" fill="#816A3C"/>
</svg>
