<svg width="184" height="142" viewBox="0 0 184 142" fill="none" xmlns="http://www.w3.org/2000/svg">
<path d="M182.528 67.5799C182.528 69.6708 182.443 71.7482 182.274 73.812C182.223 74.6646 182.152 75.5071 182.081 76.3495C181.777 79.7701 181.32 83.1297 180.701 86.3675C180.163 89.2095 179.503 91.9703 178.722 94.6296C178.336 95.8984 177.93 97.1469 177.493 98.3649C177.412 98.5882 177.341 98.8114 177.25 99.0347C176.102 102.182 174.714 105.236 173.098 108.17C173.027 108.312 172.936 108.444 172.865 108.586C172.794 108.728 172.632 109.012 172.51 109.215C171.473 111.035 170.327 112.791 169.079 114.473C167.521 116.611 165.79 118.617 163.903 120.472C162.622 121.74 161.267 122.93 159.843 124.034C159.071 124.643 158.279 125.201 157.457 125.75C143.917 134.803 126.825 135.209 110.635 129.231C94.4461 123.253 81.7485 111.773 77.3941 96.0709C77.1201 95.1371 76.8968 94.1932 76.6938 93.2188C76.1213 90.4216 75.8053 87.5779 75.7498 84.7233C75.7498 83.1602 75.7498 81.5666 75.8818 79.9223C76.0432 77.8406 76.3245 75.77 76.7242 73.7207C76.7242 73.5481 76.7851 73.3755 76.8156 73.203C76.846 73.0304 76.9069 72.7462 76.9577 72.5229C77.3943 70.4044 77.9432 68.3106 78.602 66.2503C78.9572 65.1439 79.3429 64.0274 79.7489 62.8906C80.2869 61.4594 80.8654 60.0283 81.515 58.587C82.2864 56.8818 83.1289 55.1664 84.0424 53.512C86.0679 49.7115 88.3431 46.0495 90.853 42.55C91.3402 41.8598 91.868 41.1696 92.3451 40.52C95.0775 36.8802 98.0121 33.3967 101.135 30.0858C101.622 29.5681 102.15 29.0708 102.627 28.5328C102.84 28.2892 103.084 28.0659 103.317 27.8223C105.225 25.8938 107.195 24.0364 109.204 22.2398C110.514 21.0624 111.843 19.9358 113.203 18.8396C115.558 16.9009 117.974 15.1044 120.369 13.4398C133.808 4.2236 147.581 -0.516452 157.366 3.11725C165.08 6.01 171.332 14.4751 175.666 25.7111C176.737 28.4999 177.662 31.3423 178.437 34.227C180.448 41.7002 181.719 49.3528 182.233 57.0746V57.5314C182.294 58.4144 182.345 59.3178 182.386 60.211C182.528 62.6673 182.568 65.1338 182.528 67.5799Z" fill="#CD8A00"/>
<path d="M131.9 134.276C124.5 134.215 117.169 132.84 110.25 130.216C92.6597 123.689 80.632 111.671 76.3893 96.3856C76.1152 95.4518 75.8818 94.4977 75.6687 93.4624C75.085 90.6048 74.7622 87.7001 74.7044 84.7841C74.7044 83.2007 74.7044 81.5564 74.8363 79.8918C75.0037 77.7699 75.2884 75.6589 75.6889 73.5684C75.6889 73.4872 75.6889 73.3552 75.76 73.2233V73.0609C75.8006 72.8173 75.8513 72.5737 75.9122 72.3301C76.3493 70.1873 76.9016 68.0697 77.5667 65.9863C77.9625 64.7683 78.3482 63.662 78.7339 62.5861C79.2719 61.1347 79.8809 59.6629 80.5204 58.2114C81.3121 56.4656 82.1748 54.7198 83.0883 53.0349C85.1415 49.2081 87.4473 45.5223 89.9903 42.0019C90.4877 41.3015 91.0053 40.6113 91.5128 39.9719C94.2631 36.2709 97.218 32.7264 100.364 29.355L101.379 28.2791L101.845 27.802C101.998 27.6295 102.191 27.4366 102.383 27.2438L102.556 27.0814C104.383 25.2138 106.372 23.3259 108.473 21.4481C109.834 20.2403 111.153 19.1238 112.533 18.0174C114.807 16.1498 117.243 14.3228 119.76 12.577C134.721 2.3154 148.18 -1.38935 157.681 2.1327C165.303 4.94425 171.891 12.9627 176.61 25.3051C177.695 28.13 178.63 31.0098 179.412 33.9326C181.44 41.4722 182.722 49.1929 183.238 56.9833V57.4299C183.309 58.3028 183.35 59.1858 183.391 60.0689C183.512 62.6977 183.553 65.2048 183.512 67.5596C183.512 69.5896 183.401 71.7211 183.259 73.8526C183.198 74.7052 183.137 75.5578 183.056 76.4104C182.741 79.9223 182.274 83.3225 181.665 86.5604C181.127 89.4125 180.457 92.2241 179.635 94.9138C179.26 96.1521 178.843 97.4209 178.387 98.6998C178.319 98.9231 178.238 99.1565 178.143 99.4001C176.97 102.586 175.562 105.68 173.931 108.657L173.697 109.073C173.586 109.286 173.464 109.51 173.332 109.733C172.268 111.578 171.098 113.36 169.83 115.072C168.241 117.241 166.48 119.277 164.562 121.162C163.236 122.456 161.837 123.673 160.37 124.806C159.64 125.374 158.838 125.953 157.934 126.562C150.22 131.672 141.153 134.359 131.9 134.276V134.276ZM150.078 2.965C141.958 2.965 131.747 6.8829 120.917 14.3127C118.441 16.028 116.056 17.8246 113.812 19.6617C112.473 20.7478 111.173 21.8541 109.844 23.0417C107.814 24.8788 105.784 26.7464 104.018 28.5734L103.825 28.7663L103.348 29.2535L102.86 29.761L101.845 30.776C98.7585 34.0551 95.8578 37.5047 93.1571 41.1087C92.6496 41.7786 92.1421 42.4485 91.6752 43.1387C89.1809 46.5896 86.916 50.2006 84.895 53.9484C84.0119 55.6029 83.1695 57.3081 82.3981 59.0234C81.7688 60.4343 81.1801 61.8654 80.6625 63.2661C80.2565 64.3826 79.8809 65.489 79.5257 66.5852C78.8776 68.6084 78.3389 70.6651 77.9118 72.7462C77.8509 72.9898 77.8103 73.203 77.7697 73.4161V73.6293C77.764 73.707 77.764 73.785 77.7697 73.8628C77.3756 75.899 77.0977 77.956 76.9374 80.0238C76.8156 81.6173 76.775 83.2007 76.8054 84.7232C76.8553 87.5168 77.1645 90.2997 77.7291 93.0361C77.9321 94.0511 78.1554 94.924 78.4092 95.807C82.4692 110.464 94.0605 121.994 111.031 128.287C128.002 134.58 144.303 133.362 156.94 124.917C157.802 124.339 158.564 123.791 159.254 123.242C160.664 122.165 162.003 120.999 163.263 119.751C165.115 117.939 166.812 115.977 168.338 113.884C169.563 112.232 170.692 110.511 171.718 108.728C171.83 108.535 171.931 108.342 172.033 108.139L172.287 107.703C173.867 104.81 175.225 101.8 176.347 98.6998C176.438 98.4664 176.509 98.2633 176.58 98.0502C177.037 96.7814 177.443 95.5431 177.798 94.3454C178.583 91.6732 179.234 88.9631 179.747 86.2254C180.373 82.9421 180.83 79.6289 181.117 76.2987C181.188 75.4664 181.259 74.6341 181.31 73.7917C181.452 71.6906 181.543 69.6099 181.564 67.6103C181.564 65.286 181.564 62.8297 181.452 60.3024C181.452 59.3889 181.361 58.5159 181.3 57.6633V57.2066C180.781 49.5483 179.523 41.958 177.544 34.5416C176.763 31.6793 175.849 28.8475 174.804 26.1171C170.155 14.2822 164.065 6.6799 156.96 4.0612C154.748 3.29459 152.419 2.92352 150.078 2.965V2.965Z" fill="#093F68"/>
<path d="M182.528 67.5799C182.528 69.6708 182.443 71.7482 182.274 73.812C182.223 74.6646 182.152 75.5071 182.081 76.3495C181.777 79.7701 181.32 83.1297 180.701 86.3675C180.163 89.2095 179.503 91.9703 178.722 94.6296C178.336 95.8984 177.93 97.1469 177.493 98.3649C177.412 98.5882 177.341 98.8114 177.25 99.0347C176.102 102.182 174.714 105.236 173.098 108.17L76.9272 72.5229C77.3639 70.4044 77.9128 68.3106 78.5716 66.2503C78.9268 65.1439 79.3125 64.0274 79.7185 62.8906C80.2564 61.4594 80.835 60.0283 81.4846 58.587C82.256 56.8818 83.0985 55.1665 84.012 53.512C86.0473 49.7107 88.3326 46.0486 90.853 42.55C91.3402 41.8598 91.868 41.1696 92.3451 40.52C95.0775 36.8802 98.0121 33.3967 101.135 30.0858C101.622 29.5682 102.15 29.0708 102.627 28.5329C102.84 28.2893 103.084 28.0659 103.317 27.8223L182.264 57.0746V57.5314C182.325 58.4144 182.376 59.3178 182.416 60.211C182.528 62.6673 182.568 65.1338 182.528 67.5799Z" fill="white"/>
<path d="M173.098 109.185C172.977 109.18 172.857 109.156 172.743 109.114L76.572 73.4771C76.3448 73.3924 76.1553 73.2291 76.0381 73.0169C75.9208 72.8046 75.8833 72.5574 75.9325 72.32C76.3741 70.1672 76.9298 68.0395 77.5971 65.9458C77.993 64.7278 78.3787 63.6214 78.7644 62.5455C79.3024 61.094 79.9114 59.6223 80.5508 58.1708C81.3425 56.425 82.2053 54.6792 83.1188 52.9943C85.172 49.1675 87.4777 45.4817 90.0208 41.9613C90.5181 41.2609 91.0358 40.5707 91.5433 39.9313C94.2849 36.245 97.2296 32.7141 100.364 29.355L101.379 28.2791L101.845 27.8021C101.998 27.6295 102.191 27.4366 102.383 27.2438L102.556 27.0814C102.693 26.9451 102.866 26.8507 103.055 26.8093C103.244 26.768 103.44 26.7814 103.622 26.8479L182.558 56.1003C182.74 56.1675 182.899 56.2855 183.016 56.4402C183.133 56.5949 183.203 56.7798 183.218 56.9732V57.4299C183.289 58.3028 183.33 59.1858 183.37 60.0689C183.492 62.7011 183.533 65.198 183.492 67.5596C183.492 69.5896 183.38 71.7211 183.238 73.8526C183.177 74.7052 183.117 75.5578 183.035 76.4104C182.721 79.9223 182.254 83.3226 181.645 86.5604C181.107 89.4126 180.437 92.2241 179.615 94.9138C179.239 96.1521 178.823 97.4209 178.366 98.6998C178.299 98.9231 178.217 99.1565 178.123 99.4001C176.95 102.586 175.542 105.68 173.911 108.657C173.83 108.806 173.713 108.932 173.572 109.024C173.43 109.116 173.267 109.171 173.098 109.185ZM78.1046 71.8733L172.632 106.911C174.039 104.257 175.263 101.51 176.296 98.6896C176.387 98.4562 176.458 98.2532 176.529 98.04C176.986 96.7713 177.392 95.533 177.747 94.3353C178.533 91.6631 179.183 88.953 179.696 86.2153C180.322 82.932 180.779 79.6187 181.066 76.2886C181.137 75.4563 181.208 74.624 181.259 73.7816C181.401 71.6805 181.493 69.5997 181.513 67.6002C181.513 65.2758 181.513 62.8195 181.401 60.2922C181.401 59.4497 181.32 58.6378 181.259 57.8461L103.551 29.0404L103.348 29.2535L102.86 29.761L101.845 30.776C98.7585 34.0551 95.8578 37.5047 93.1571 41.1087C92.6496 41.7786 92.1421 42.4485 91.6752 43.1387C89.1809 46.5896 86.916 50.2006 84.895 53.9484C84.0119 55.6029 83.1695 57.3081 82.3981 59.0234C81.7688 60.4343 81.1801 61.8655 80.6625 63.2662C80.2565 64.3827 79.8809 65.489 79.5257 66.5852C78.9471 68.4325 78.47 70.1884 78.1046 71.8733V71.8733Z" fill="#093F68"/>
<path d="M107.235 61.7639C111.658 61.7639 115.243 58.1785 115.243 53.7556C115.243 49.3327 111.658 45.7473 107.235 45.7473C102.812 45.7473 99.2268 49.3327 99.2268 53.7556C99.2268 58.1785 102.812 61.7639 107.235 61.7639Z" fill="#CD8A00"/>
<path d="M107.225 62.7789C106.157 62.7796 105.098 62.587 104.099 62.2105C101.991 61.4238 100.254 59.8765 99.2305 57.8733C98.2066 55.8701 97.9699 53.5562 98.5668 51.3871C99.1637 49.218 100.551 47.3511 102.456 46.1538C104.36 44.9565 106.644 44.5157 108.858 44.9181C111.071 45.3205 113.054 46.5371 114.415 48.3282C115.776 50.1193 116.418 52.3551 116.213 54.5955C116.008 56.8358 114.972 58.9183 113.308 60.4329C111.645 61.9475 109.475 62.7845 107.225 62.7789V62.7789ZM107.225 46.7623C106.18 46.7625 105.148 46.9971 104.205 47.4487C103.262 47.9004 102.433 48.5576 101.778 49.372C101.123 50.1864 100.658 51.1374 100.419 52.1549C100.18 53.1725 100.172 54.2307 100.395 55.2518C100.619 56.2728 101.069 57.2308 101.711 58.0552C102.354 58.8796 103.173 59.5494 104.109 60.0154C105.044 60.4815 106.073 60.7318 107.118 60.7481C108.163 60.7644 109.198 60.5462 110.148 60.1095C110.985 59.7291 111.737 59.1858 112.361 58.5114C112.984 57.8369 113.468 57.0448 113.782 56.1814C114.173 55.1243 114.303 53.9883 114.16 52.8703C114.017 51.7522 113.606 50.6852 112.962 49.7601C112.318 48.8351 111.46 48.0794 110.461 47.5574C109.462 47.0354 108.352 46.7626 107.225 46.7623V46.7623Z" fill="#093F68"/>
<path d="M135.077 72.0763C139.499 72.0763 143.085 68.4909 143.085 64.068C143.085 59.6451 139.499 56.0596 135.077 56.0596C130.654 56.0596 127.068 59.6451 127.068 64.068C127.068 68.4909 130.654 72.0763 135.077 72.0763Z" fill="#CD8A00"/>
<path d="M135.087 73.1015C134.013 73.0985 132.948 72.9061 131.94 72.5331C130.268 71.9121 128.818 70.8095 127.772 69.3646C126.727 67.9197 126.133 66.1974 126.065 64.4151C125.998 62.6328 126.46 60.8706 127.394 59.3509C128.328 57.8312 129.691 56.6224 131.311 55.877C133.485 54.8773 135.967 54.7819 138.211 55.6118C140.455 56.4417 142.277 58.1289 143.278 60.3024C143.775 61.3786 144.054 62.5425 144.099 63.727C144.144 64.9115 143.955 66.0933 143.542 67.2043V67.2043C142.898 68.9298 141.745 70.4184 140.234 71.4719C138.724 72.5254 136.928 73.0938 135.087 73.1015V73.1015ZM135.087 57.0746C133.658 57.0765 132.265 57.5151 131.093 58.3315C129.921 59.1479 129.027 60.3031 128.53 61.6421C127.889 63.3821 127.962 65.3049 128.733 66.9912C129.259 68.1272 130.08 69.1009 131.111 69.8106C132.143 70.5202 133.346 70.9396 134.594 71.0248C135.843 71.1101 137.092 70.8581 138.21 70.2952C139.328 69.7323 140.275 68.8792 140.95 67.8252C141.625 66.7712 142.005 65.5551 142.049 64.3041C142.093 63.0531 141.8 61.8132 141.201 60.7143C140.601 59.6153 139.718 58.6977 138.642 58.0574C137.566 57.4171 136.339 57.0776 135.087 57.0746V57.0746Z" fill="#093F68"/>
<path d="M162.928 82.3989C167.351 82.3989 170.937 78.8134 170.937 74.3905C170.937 69.9676 167.351 66.3822 162.928 66.3822C158.505 66.3822 154.92 69.9676 154.92 74.3905C154.92 78.8134 158.505 82.3989 162.928 82.3989Z" fill="#CD8A00"/>
<path d="M162.918 83.4139C160.994 83.4145 159.12 82.8008 157.57 81.6623C156.019 80.5238 154.872 78.92 154.296 77.0843C153.72 75.2487 153.745 73.2771 154.368 71.4568C154.991 69.6365 156.178 68.0624 157.758 66.964C159.337 65.8656 161.226 65.3001 163.149 65.3499C165.072 65.3997 166.93 66.0623 168.45 67.241C169.971 68.4197 171.075 70.0531 171.603 71.9032C172.13 73.7533 172.053 75.7235 171.383 77.5269C170.741 79.2545 169.586 80.7445 168.073 81.7968C166.56 82.8491 164.761 83.4133 162.918 83.4139ZM162.918 67.3972C161.909 67.3982 160.912 67.6163 159.995 68.0366C158.431 68.7564 157.188 70.0286 156.504 71.609C155.821 73.1894 155.746 74.9665 156.293 76.5991C156.84 78.2316 157.971 79.6046 159.468 80.4542C160.966 81.3038 162.724 81.5702 164.406 81.2023C166.088 80.8343 167.575 79.858 168.581 78.4607C169.587 77.0634 170.042 75.3437 169.857 73.6319C169.673 71.92 168.862 70.3367 167.581 69.1859C166.301 68.0352 164.64 67.3982 162.918 67.3972Z" fill="#093F68"/>
<path d="M180.741 45.6762C180.619 45.6762 180.499 45.6521 180.386 45.6051L112.158 20.3316C111.905 20.2374 111.7 20.0466 111.587 19.801C111.475 19.5555 111.465 19.2753 111.559 19.0223C111.653 18.7693 111.844 18.564 112.09 18.4517C112.335 18.3394 112.615 18.3292 112.868 18.4235L181.097 43.7071C181.322 43.7888 181.511 43.9474 181.63 44.155C181.75 44.3626 181.792 44.6058 181.749 44.8414C181.707 45.0771 181.582 45.2902 181.398 45.443C181.213 45.5957 180.981 45.6783 180.741 45.6762V45.6762Z" fill="#093F68"/>
<path d="M177.696 32.6639C177.576 32.6626 177.456 32.6421 177.341 32.603L122.937 12.4451C122.805 12.4041 122.683 12.3367 122.578 12.2468C122.473 12.1569 122.388 12.0466 122.327 11.9225C122.266 11.7985 122.231 11.6633 122.224 11.5253C122.218 11.3872 122.239 11.2493 122.287 11.1199C122.336 10.9905 122.41 10.8723 122.506 10.7726C122.602 10.673 122.717 10.5939 122.844 10.5403C122.971 10.4866 123.108 10.4596 123.247 10.4607C123.385 10.4619 123.521 10.4913 123.648 10.547L178.052 30.705C178.27 30.7912 178.452 30.9504 178.566 31.1556C178.68 31.3607 178.72 31.5991 178.678 31.8302C178.636 32.0612 178.515 32.2705 178.336 32.4225C178.157 32.5746 177.931 32.6599 177.696 32.6639V32.6639Z" fill="#093F68"/>
<path d="M171.962 18.6772C171.84 18.6792 171.718 18.655 171.606 18.6062L136.416 5.57355C136.291 5.5269 136.176 5.45603 136.078 5.36498C135.98 5.27393 135.901 5.16449 135.846 5.04291C135.79 4.92132 135.759 4.78997 135.754 4.65636C135.749 4.52275 135.771 4.3895 135.818 4.2642C135.864 4.13891 135.935 4.02403 136.026 3.92613C136.117 3.82822 136.227 3.74921 136.348 3.6936C136.47 3.638 136.601 3.60688 136.735 3.60203C136.868 3.59719 137.002 3.6187 137.127 3.66535L172.307 16.7081C172.531 16.7895 172.72 16.9473 172.839 17.1539C172.959 17.3604 173.001 17.6024 172.96 17.8374C172.919 18.0724 172.796 18.2854 172.614 18.439C172.431 18.5926 172.2 18.6769 171.962 18.6772V18.6772Z" fill="#093F68"/>
<path d="M144.232 132.682C144.111 132.683 143.99 132.662 143.877 132.621L83.1796 110.129C83.0544 110.082 82.9395 110.011 82.8416 109.92C82.7437 109.829 82.6647 109.72 82.609 109.598C82.5534 109.476 82.5223 109.345 82.5175 109.212C82.5126 109.078 82.5341 108.945 82.5808 108.819C82.6275 108.694 82.6983 108.579 82.7894 108.481C82.8804 108.383 82.9899 108.304 83.1115 108.249C83.233 108.193 83.3644 108.162 83.498 108.157C83.6316 108.152 83.7648 108.174 83.8901 108.22L144.547 130.713C144.768 130.793 144.955 130.947 145.075 131.15C145.195 131.352 145.241 131.59 145.205 131.823C145.169 132.056 145.054 132.269 144.878 132.425C144.702 132.582 144.477 132.673 144.242 132.682H144.232Z" fill="#093F68"/>
<path d="M158.391 126.105C158.269 126.107 158.148 126.083 158.036 126.034L76.7039 95.8984C76.4528 95.8048 76.2489 95.6156 76.1367 95.3722C76.0245 95.1288 76.0132 94.8509 76.1051 94.5992C76.1514 94.4736 76.2221 94.3585 76.3131 94.2604C76.404 94.1622 76.5135 94.0831 76.6352 94.0274C76.7569 93.9718 76.8884 93.9407 77.0221 93.9361C77.1558 93.9314 77.2892 93.9533 77.4144 94.0003L158.736 124.136C158.961 124.217 159.149 124.375 159.268 124.581C159.388 124.788 159.431 125.03 159.39 125.265C159.349 125.5 159.226 125.713 159.043 125.867C158.861 126.02 158.63 126.105 158.391 126.105Z" fill="#093F68"/>
<path d="M167.414 117.66C167.296 117.664 167.179 117.644 167.069 117.599L75.3845 83.627C75.2493 83.5894 75.1233 83.5242 75.0146 83.4355C74.9059 83.3468 74.8168 83.2365 74.7529 83.1116C74.6889 82.9867 74.6516 82.8499 74.6432 82.7098C74.6348 82.5697 74.6556 82.4294 74.7041 82.2978C74.7527 82.1661 74.8281 82.046 74.9254 81.9449C75.0228 81.8439 75.14 81.7641 75.2698 81.7107C75.3995 81.6572 75.5389 81.6312 75.6792 81.6344C75.8195 81.6375 75.9576 81.6698 76.0848 81.729L167.77 115.63C167.988 115.716 168.17 115.875 168.284 116.081C168.398 116.286 168.438 116.524 168.396 116.755C168.354 116.986 168.233 117.196 168.054 117.348C167.875 117.5 167.649 117.585 167.414 117.589V117.66Z" fill="#093F68"/>
<path d="M105.469 88.7833C105.484 92.2903 105.219 95.793 104.677 99.258C104.677 99.5016 104.606 99.7452 104.566 99.9888C103.8 104.667 102.4 109.219 100.404 113.519C99.6294 115.157 98.7618 116.75 97.8058 118.289C97.2881 119.122 96.74 119.934 96.1615 120.715C86.6205 133.9 70.685 140.244 53.43 140.244C36.175 140.244 20.3105 133.9 10.8 120.705C10.2214 119.923 9.68349 119.111 9.15569 118.279C7.64345 115.857 6.3623 113.298 5.32915 110.636C3.98046 107.196 2.99727 103.624 2.3958 99.9787C2.3958 99.8061 2.39579 99.6336 2.31459 99.4611C1.93097 97.1092 1.68694 94.7367 1.58379 92.3561C1.52289 91.1888 1.49245 90.0114 1.49245 88.8036C1.49245 87.2811 1.49245 85.7586 1.6447 84.1549C1.77327 82.2873 1.96949 80.3926 2.23339 78.4708C2.83323 74.2133 3.70796 69.999 4.85209 65.8544C5.07539 65.0424 5.29869 64.2203 5.54229 63.4083C6.83864 59.0606 8.37362 54.7878 10.1402 50.6091C10.4143 49.9494 10.7086 49.2896 10.9928 48.5791C12.2311 45.798 13.5608 43.0575 14.9716 40.3982C15.8039 38.8452 16.6565 37.3532 17.5396 35.8206C19.0824 33.1917 20.7165 30.6643 22.4014 28.2689C31.78 14.9521 43.0669 5.7258 53.5011 5.7258C61.7632 5.7258 70.5632 11.5113 78.5411 20.5448C80.4391 22.7169 82.3068 25.0615 84.0932 27.5686C88.6613 34.0035 92.575 40.8787 95.7758 48.0919C96.1412 48.9039 96.5066 49.726 96.8517 50.5583C97.8058 52.8218 98.699 55.1157 99.511 57.4299C100.221 59.399 100.861 61.3782 101.45 63.3575C101.693 64.1695 101.917 64.9917 102.14 65.8037C103.038 69.0563 103.77 72.3525 104.332 75.6796C104.82 78.4678 105.158 81.2799 105.347 84.1041C105.439 85.4337 105.489 86.7431 105.51 88.0423L105.469 88.7833Z" fill="#CD8A00"/>
<path d="M53.43 141.259C34.6627 141.259 19.2042 134.154 9.9068 121.314C9.30795 120.492 8.75985 119.68 8.2219 118.827C6.68125 116.346 5.36986 113.731 4.304 111.012C2.93739 107.505 1.94067 103.865 1.33005 100.151C1.33005 99.9888 1.26915 99.8061 1.2387 99.6133C0.84686 97.218 0.599427 94.8013 0.497749 92.3763C0.436849 91.1583 0.406403 89.9404 0.406403 88.7833C0.406403 87.1999 0.406404 85.6165 0.558654 84.0737C0.700754 82.135 0.8936 80.1963 1.1575 78.3084C1.76402 74.0095 2.64893 69.7545 3.80665 65.5702C4.02995 64.748 4.25325 63.9157 4.49685 63.1037C5.80361 58.7179 7.35216 54.4077 9.1354 50.1929C9.3181 49.7463 9.51095 49.3099 9.7038 48.8633L9.988 48.2137C11.2364 45.4022 12.5864 42.6312 14.048 39.9617C14.9006 38.3479 15.7735 36.7949 16.6363 35.3333C18.1486 32.7552 19.8031 30.1974 21.5387 27.7107C31.9831 12.9018 43.28 4.74125 53.43 4.74125C61.55 4.74125 70.4718 9.9888 79.2313 19.9054C81.1598 22.1079 83.0477 24.4932 84.8544 27.0104C89.45 33.5069 93.397 40.4387 96.6386 47.7062C97.004 48.5284 97.3592 49.3606 97.7145 50.1929C98.7295 52.5376 99.6125 54.8721 100.404 57.1254C101.084 59.0234 101.744 61.0331 102.353 63.1037C102.597 63.9157 102.83 64.748 103.053 65.5702C103.959 68.8564 104.698 72.1865 105.266 75.5476C105.754 78.3699 106.092 81.2158 106.281 84.0737C106.372 85.3526 106.423 86.6923 106.443 88.0524V88.7833C106.454 92.3445 106.186 95.901 105.642 99.4204C105.642 99.6234 105.581 99.8366 105.54 100.05C104.766 104.859 103.331 109.538 101.277 113.955C100.489 115.629 99.6045 117.256 98.6279 118.827C98.1001 119.68 97.5419 120.492 96.943 121.314C87.6862 134.174 72.2278 141.259 53.43 141.259ZM53.43 6.77125C44.092 6.77125 33.0589 14.8303 23.1627 28.8779C21.4473 31.3139 19.8335 33.8312 18.3516 36.3687C17.499 37.7998 16.6464 39.3223 15.804 40.9057C14.4033 43.5345 13.0736 46.2649 11.8556 49.0257L11.5714 49.6753C11.3786 50.1117 11.1857 50.5482 11.003 50.9846C9.25124 55.1301 7.72981 59.3691 6.44565 63.6823C6.20205 64.4842 5.97875 65.2961 5.7656 66.098C4.62793 70.2012 3.76328 74.3752 3.17735 78.5926C2.91345 80.4298 2.7206 82.3177 2.58865 84.2056C2.48715 85.7078 2.4364 87.2506 2.4364 88.7833C2.4364 89.9099 2.4364 91.0873 2.52775 92.285C2.62924 94.6384 2.86987 96.9838 3.2484 99.3088C3.2484 99.4813 3.29915 99.6437 3.3296 99.796C3.91452 103.379 4.87738 106.89 6.20205 110.271C7.2144 112.876 8.46832 115.38 9.9474 117.751C10.4549 118.563 10.9624 119.335 11.5511 120.116C20.4628 132.449 35.3326 139.229 53.43 139.229C71.5274 139.229 86.387 132.449 95.2987 120.126C95.8773 119.335 96.395 118.563 96.9025 117.751C97.8374 116.243 98.6879 114.685 99.4501 113.082C101.402 108.866 102.768 104.403 103.51 99.8163C103.561 99.5219 103.591 99.3291 103.622 99.1261C104.153 95.7043 104.414 92.246 104.403 88.7833V88.1032C104.403 86.7499 104.353 85.4507 104.251 84.2056C104.057 81.4156 103.718 78.6375 103.236 75.8826C102.698 72.7158 101.967 69.4272 101.064 66.1082C100.841 65.2962 100.617 64.4842 100.374 63.6823C99.7749 61.6523 99.1253 59.673 98.4554 57.8054C97.684 55.5826 96.7908 53.2887 95.8164 50.9846C95.4713 50.1591 95.1161 49.3471 94.7507 48.5487C91.5731 41.3954 87.6937 34.575 83.1695 28.1877C81.4034 25.7314 79.5561 23.397 77.6783 21.2452C69.3858 11.7752 60.9816 6.77125 53.43 6.77125Z" fill="#093F68"/>
<path d="M105.307 84.165H1.66501C1.79358 82.2974 1.98981 80.4027 2.25371 78.481C2.85355 74.2234 3.72828 70.0091 4.87241 65.8645H102.15C103.048 69.1172 103.78 72.4134 104.342 75.7405C104.813 78.5296 105.135 81.3417 105.307 84.165V84.165Z" fill="white"/>
<path d="M105.307 85.18H1.665C1.52657 85.1809 1.38942 85.1534 1.262 85.0993C1.13458 85.0451 1.01957 84.9656 0.924051 84.8653C0.827316 84.7628 0.752997 84.6413 0.705814 84.5085C0.658632 84.3757 0.639622 84.2345 0.650005 84.0939C0.792105 82.1654 0.984951 80.2268 1.24885 78.3389C1.85537 74.04 2.74028 69.7849 3.898 65.6007C3.95748 65.3792 4.09018 65.1844 4.27449 65.0481C4.4588 64.9117 4.68385 64.8417 4.913 64.8495H102.15C102.379 64.8417 102.604 64.9117 102.789 65.0481C102.973 65.1844 103.106 65.3792 103.165 65.6007C104.079 68.8855 104.821 72.2159 105.388 75.5781C105.875 78.4003 106.214 81.2463 106.403 84.1041C106.411 84.2424 106.391 84.381 106.344 84.5113C106.297 84.6415 106.223 84.7607 106.128 84.8615C106.033 84.9623 105.918 85.0426 105.791 85.0973C105.664 85.1521 105.526 85.1802 105.388 85.18H105.307ZM2.68 83.15H104.18C103.987 80.8155 103.683 78.3896 103.267 75.913C102.769 72.9797 102.109 69.9448 101.287 66.8795H5.6032C4.56444 70.7406 3.76781 74.6627 3.21795 78.6231C3.0048 80.105 2.83225 81.597 2.68 83.15Z" fill="#093F68"/>
<path d="M104.677 99.258C104.677 99.5016 104.606 99.7452 104.566 99.9888C103.8 104.667 102.4 109.219 100.404 113.519C99.2528 113.983 98.0219 114.217 96.7807 114.209C91.2286 114.209 88.5794 110.037 86.8235 107.266C85.5953 105.328 84.9559 104.465 84.3976 104.465C83.8394 104.465 83.2101 105.328 81.9921 107.266C80.226 110.037 77.5769 114.209 72.0248 114.209C66.4728 114.209 63.8236 110.037 62.0575 107.266C60.8293 105.328 60.1899 104.465 59.652 104.465C59.114 104.465 58.4644 105.328 57.2261 107.266C55.4702 110.037 52.821 114.209 47.2689 114.209C41.7169 114.209 39.0677 110.037 37.3118 107.266C36.0836 105.328 35.4442 104.465 34.8859 104.465C34.3277 104.465 33.6984 105.328 32.4804 107.266C30.7244 110.037 28.0651 114.209 22.5131 114.209C16.961 114.209 14.3119 110.037 12.556 107.266C11.3177 105.328 10.6782 104.465 10.1402 104.465C9.6023 104.465 8.9527 105.328 7.72455 107.266C7.00732 108.456 6.19612 109.586 5.2987 110.646C3.95001 107.206 2.96682 103.634 2.36535 99.9888C2.36535 99.8163 2.36535 99.6437 2.28415 99.4712C3.19756 98.2487 4.38291 97.2555 5.74643 96.5703C7.10994 95.885 8.61421 95.5264 10.1402 95.5228C15.6821 95.5228 18.3415 99.7046 20.0974 102.476C21.3256 104.414 21.9751 105.277 22.5131 105.277C23.051 105.277 23.7006 104.414 24.9288 102.476C26.6847 99.7046 29.344 95.5228 34.8859 95.5228C40.4278 95.5228 43.0973 99.7046 44.8533 102.476C46.0814 104.414 46.7208 105.277 47.2689 105.277C47.817 105.277 48.4565 104.414 49.6846 102.476C51.4406 99.7046 54.0999 95.5228 59.652 95.5228C65.204 95.5228 67.8532 99.7046 69.6091 102.476C70.8373 104.414 71.4767 105.277 72.0248 105.277C72.5729 105.277 73.2123 104.414 74.4405 102.476C76.1964 99.7046 78.8557 95.5228 84.3976 95.5228C89.9395 95.5228 92.609 99.7046 94.3649 102.476C95.5931 104.414 96.2326 105.277 96.7807 105.277C97.3288 105.277 97.9783 104.414 99.1963 102.476C100.343 100.689 101.856 98.2836 104.271 96.8322C104.444 97.6442 104.566 98.4562 104.677 99.258Z" fill="white"/>
<path d="M96.7807 115.224C90.6907 115.224 87.7167 110.585 85.9608 107.804C85.4955 107.031 84.9766 106.292 84.4078 105.592C83.8358 106.292 83.3135 107.031 82.8447 107.804C81.0786 110.596 78.125 115.224 72.0248 115.224C65.9247 115.224 62.971 110.596 61.215 107.825C60.7454 107.046 60.2231 106.3 59.652 105.592C59.0758 106.295 58.5501 107.037 58.0787 107.814C56.3227 110.585 53.3894 115.224 47.2689 115.224C41.1485 115.224 38.205 110.555 36.4491 107.804C35.9838 107.031 35.4649 106.292 34.8961 105.592C34.3241 106.292 33.8018 107.031 33.333 107.804C31.577 110.585 28.6335 115.224 22.5131 115.224C16.3926 115.224 13.4593 110.585 11.7033 107.804C11.2295 107.035 10.7074 106.296 10.1402 105.592C9.57052 106.294 9.04833 107.033 8.57715 107.804C7.83182 109.039 6.99014 110.214 6.05995 111.316C5.94393 111.447 5.79605 111.546 5.63066 111.603C5.46528 111.66 5.28799 111.673 5.116 111.641C4.94712 111.611 4.78871 111.538 4.65558 111.43C4.52245 111.321 4.41895 111.181 4.35475 111.022C2.98138 107.513 1.98116 103.869 1.37065 100.151C1.37065 99.9888 1.30975 99.8061 1.2793 99.6133C1.26066 99.4747 1.27087 99.3337 1.3093 99.1992C1.34773 99.0647 1.41353 98.9396 1.5026 98.8317C2.50349 97.4853 3.80649 96.3926 5.30673 95.6416C6.80697 94.8906 8.46255 94.5023 10.1402 94.5078C16.2302 94.5078 19.1839 99.1464 20.95 101.927C21.4187 102.704 21.941 103.447 22.5131 104.15C23.0819 103.446 23.6008 102.704 24.0661 101.927C25.8322 99.1464 28.7858 94.5078 34.8859 94.5078C40.9861 94.5078 43.9296 99.1362 45.6855 101.887C46.1606 102.677 46.6896 103.433 47.2689 104.15C47.841 103.447 48.3633 102.704 48.832 101.927C50.5981 99.1565 53.5417 94.5078 59.652 94.5078C65.7623 94.5078 68.7057 99.1565 70.4617 101.927C70.928 102.705 71.4504 103.448 72.0248 104.15C72.5959 103.446 73.1181 102.703 73.5879 101.927C75.3438 99.1565 78.2975 94.5078 84.3976 94.5078C90.4978 94.5078 93.4413 99.1362 95.2074 101.897C95.679 102.684 96.2047 103.437 96.7807 104.15C97.3551 103.448 97.8775 102.705 98.3437 101.927L98.4046 101.836C99.7102 99.481 101.553 97.4674 103.784 95.9593C103.926 95.8749 104.085 95.8261 104.25 95.8173C104.414 95.8085 104.578 95.8398 104.728 95.9085C104.878 95.9772 105.01 96.0815 105.11 96.2124C105.211 96.3433 105.279 96.4968 105.307 96.6596C105.449 97.4919 105.581 98.3141 105.682 99.1261C105.692 99.2172 105.692 99.3091 105.682 99.4001C105.682 99.6234 105.621 99.8366 105.581 100.05C104.806 104.859 103.372 109.538 101.318 113.955C101.211 114.184 101.023 114.365 100.79 114.463C99.516 114.976 98.154 115.234 96.7807 115.224V115.224ZM84.3976 103.45C85.5446 103.45 86.316 104.566 87.6761 106.718C89.4118 109.449 91.7361 113.194 96.8111 113.194C97.7887 113.199 98.7601 113.038 99.6836 112.717C101.551 108.608 102.865 104.27 103.591 99.8163C103.591 99.5828 103.662 99.4204 103.683 99.258L103.591 98.6084C102.234 99.8713 101.071 101.328 100.14 102.932L100.09 103.024C98.6482 105.287 97.9073 106.292 96.8111 106.292C95.7149 106.292 94.974 105.277 93.5428 103.014C91.7869 100.263 89.4118 96.5378 84.4078 96.5378C79.4039 96.5378 77.0491 100.283 75.2728 103.014C73.8315 105.287 73.0905 106.292 71.9943 106.292C70.8981 106.292 70.1572 105.277 68.7159 103.014C66.9802 100.283 64.6051 96.5378 59.5809 96.5378C54.5566 96.5378 52.212 100.283 50.4459 103.014C49.1162 105.104 48.3042 106.292 47.1674 106.292C46.0306 106.292 45.3303 105.277 43.8991 103.014C42.1432 100.263 39.7681 96.5378 34.7641 96.5378C29.7602 96.5378 27.4054 100.283 25.6291 103.014C24.1878 105.287 23.4469 106.292 22.3507 106.292C21.2545 106.292 20.4019 105.104 19.0722 103.014C17.3366 100.283 15.0123 96.5378 9.93725 96.5378C8.6356 96.5283 7.34883 96.8149 6.17421 97.3758C4.99959 97.9367 3.96787 98.7574 3.15705 99.7757V99.7757C3.65248 102.771 4.40292 105.718 5.4002 108.586C5.8468 107.977 6.2528 107.337 6.64865 106.698C8.0189 104.546 8.78015 103.43 9.9271 103.43C11.074 103.43 11.8251 104.546 13.1954 106.698C14.931 109.428 17.3061 113.174 22.3304 113.174C27.3546 113.174 29.7094 109.428 31.4654 106.698C32.8356 104.546 33.5969 103.43 34.7337 103.43C35.8705 103.43 36.652 104.546 38.0121 106.698C39.7478 109.428 42.0721 113.174 47.1471 113.174C52.2221 113.174 54.516 109.428 56.2821 106.698C57.6524 104.546 58.4238 103.43 59.5606 103.43C60.6974 103.43 61.4586 104.546 62.8289 106.698C64.5645 109.438 66.9498 113.174 71.9639 113.174C76.978 113.174 79.3226 109.438 81.0989 106.708C82.4996 104.566 83.2608 103.45 84.3976 103.45Z" fill="#093F68"/>
<path d="M13.6318 42.9763C14.2094 43.2068 14.8269 43.3206 15.4487 43.3112C21.6402 43.3112 21.6402 33.5571 27.8215 33.5571C34.0029 33.5571 34.013 43.3112 40.2045 43.3112C46.396 43.3112 46.3859 33.5571 52.5774 33.5571C58.7689 33.5571 58.7689 43.3112 64.9503 43.3112C71.1316 43.3112 71.1417 33.5571 77.3332 33.5571C83.5247 33.5571 83.5247 43.3112 89.7162 43.3112C90.8737 43.3167 91.9982 42.9263 92.9033 42.2049L96.5573 49.9595C94.7608 52.6797 93.2383 55.8161 89.7162 55.8161C83.5247 55.8161 83.5247 46.0721 77.3332 46.0721C71.1417 46.0721 71.1418 55.8161 64.9503 55.8161C58.7588 55.8161 58.7689 46.0721 52.5774 46.0721C46.3859 46.0721 46.3859 55.8161 40.2045 55.8161C34.0232 55.8161 34.013 46.0721 27.8215 46.0721C21.63 46.0721 21.6402 55.8161 15.4487 55.8161C12.6371 55.8161 11.1045 53.786 9.69365 51.6139L13.6318 42.9763Z" fill="white"/>
<path d="M89.7163 56.8412C86.0623 56.8412 84.2556 53.9992 82.662 51.5023C81.0685 49.0054 79.8708 47.0972 77.3333 47.0972C74.7958 47.0972 73.4966 49.1272 72.0045 51.4921C70.411 53.9992 68.6043 56.8412 64.8995 56.8412C61.1948 56.8412 59.449 53.9992 57.8656 51.5023C56.2822 49.0054 55.0642 47.0972 52.5267 47.0972C49.9892 47.0972 48.7001 49.1272 47.1979 51.4921C45.6044 53.9992 43.8078 56.8412 40.1538 56.8412C36.4998 56.8412 34.6931 53.9992 33.0996 51.4921C31.506 48.9851 30.3083 47.0972 27.7708 47.0972C25.2333 47.0972 23.9443 49.1272 22.4421 51.4921C20.8587 53.9992 19.052 56.8412 15.398 56.8412C12.0789 56.8412 10.323 54.5371 8.7903 52.1722C8.69018 52.0242 8.63089 51.8525 8.61841 51.6742C8.60594 51.496 8.64072 51.3177 8.71925 51.1572L12.6575 42.5094C12.7663 42.273 12.9619 42.0874 13.2037 41.9911C13.4455 41.8948 13.715 41.895 13.9567 41.9917C14.4157 42.1715 14.905 42.2611 15.398 42.2556C17.9355 42.2556 19.2347 40.2256 20.7267 37.8505C22.2188 35.4754 24.127 32.5015 27.7708 32.5015C31.4147 32.5015 33.2214 35.3435 34.8149 37.8505C36.4085 40.3576 37.6163 42.2556 40.1538 42.2556C42.6913 42.2556 43.9804 40.2256 45.4826 37.8505C46.9848 35.4754 48.8727 32.5015 52.5267 32.5015C56.1807 32.5015 57.9874 35.3435 59.6317 37.8505C61.276 40.3576 62.4229 42.2556 64.9503 42.2556C67.4776 42.2556 68.787 40.2256 70.2892 37.8505C71.7914 35.4754 73.6793 32.5015 77.3333 32.5015C80.9873 32.5015 82.794 35.3435 84.3774 37.8505C85.9608 40.3576 87.1788 42.2556 89.7163 42.2556C90.6495 42.2619 91.5563 41.9465 92.2842 41.3624C92.4038 41.2706 92.5424 41.2065 92.6899 41.1749C92.8374 41.1433 92.99 41.1449 93.1368 41.1797C93.2856 41.2134 93.425 41.2801 93.5445 41.375C93.664 41.4699 93.7606 41.5905 93.827 41.7278L97.4709 49.4926C97.5353 49.6256 97.57 49.7711 97.5724 49.9189C97.5728 50.1213 97.5127 50.3193 97.3998 50.4873C97.1867 50.8121 96.9837 51.1369 96.7807 51.5023C95.1871 53.9992 93.3804 56.8412 89.7163 56.8412ZM77.3333 45.0672C80.9873 45.0672 82.794 47.899 84.3774 50.4061C85.9608 52.9131 87.1788 54.8112 89.7163 54.8112C92.2538 54.8112 93.5631 52.7812 95.0653 50.4061L95.4003 49.8885L92.4771 43.6766C91.6207 44.1074 90.6748 44.33 89.7163 44.3262C86.0623 44.3262 84.2556 41.4843 82.662 38.9772C81.0685 36.4702 79.8708 34.5721 77.3333 34.5721C74.7958 34.5721 73.4966 36.6021 72.0045 38.9772C70.5125 41.3523 68.6043 44.3262 64.8995 44.3262C61.1948 44.3262 59.449 41.4843 57.8656 38.9772C56.2822 36.4702 55.0642 34.5721 52.5267 34.5721C49.9892 34.5721 48.7001 36.6021 47.1979 38.9772C45.6957 41.3523 43.8078 44.3262 40.1538 44.3262C36.4998 44.3262 34.6931 41.4843 33.0996 38.9772C31.506 36.4702 30.3083 34.5721 27.7708 34.5721C25.2333 34.5721 23.9443 36.6021 22.4421 38.9772C20.9399 41.3523 19.052 44.3262 15.398 44.3262C14.9748 44.3297 14.5526 44.2854 14.1394 44.1943L10.7899 51.5328C12.221 53.6643 13.439 54.8112 15.398 54.8112C17.9355 54.8112 19.2347 52.7812 20.7267 50.4061C22.2188 48.031 24.127 45.0672 27.7708 45.0672C31.4147 45.0672 33.2214 47.899 34.8149 50.4061C36.4085 52.9131 37.6163 54.8112 40.1538 54.8112C42.6913 54.8112 43.9804 52.7812 45.4826 50.4061C46.9848 48.031 48.8727 45.0672 52.5267 45.0672C56.1807 45.0672 57.9874 47.9092 59.6317 50.4162C61.1237 52.771 62.4229 54.8112 64.9503 54.8112C67.4776 54.8112 68.787 52.7812 70.2892 50.4061C71.7914 48.031 73.73 45.0672 77.3333 45.0672V45.0672Z" fill="#093F68"/>
<path d="M64.9503 31.8012C61.3064 31.8012 59.4997 28.9591 57.9163 26.4521C56.3329 23.945 55.1149 22.047 52.5774 22.047C50.0399 22.047 48.7509 24.077 47.2487 26.4521C45.7465 28.8272 43.8484 31.8012 40.2045 31.8012C36.5607 31.8012 34.7438 28.9591 33.1604 26.4521C31.6887 24.1379 30.42 22.1383 27.9941 22.0571C27.8608 22.0525 27.7297 22.0216 27.6084 21.9663C27.487 21.911 27.3777 21.8323 27.2868 21.7347C27.1958 21.6372 27.125 21.5227 27.0783 21.3978C27.0316 21.2728 27.01 21.1399 27.0146 21.0066C27.0193 20.8733 27.0502 20.7423 27.1055 20.6209C27.1608 20.4995 27.2395 20.3903 27.337 20.2993C27.4346 20.2084 27.5491 20.1375 27.674 20.0908C27.7989 20.0441 27.9319 20.0225 28.0651 20.0271C31.5567 20.1489 33.3127 22.9199 34.8657 25.366C36.4186 27.8122 37.667 29.7712 40.2045 29.7712C42.742 29.7712 44.0311 27.7411 45.5333 25.366C47.0355 22.9909 48.9234 20.017 52.5774 20.017C56.2314 20.017 58.0381 22.859 59.6824 25.366C61.3267 27.8731 62.4736 29.7712 65.001 29.7712C67.5283 29.7712 68.8377 27.7411 70.3399 25.366C71.8421 22.9909 73.73 20.017 77.384 20.017C78.1632 20.0116 78.9358 20.1599 79.6576 20.4535C79.9066 20.5571 80.1042 20.7554 80.207 21.0048C80.3098 21.2541 80.3093 21.5341 80.2057 21.7831C80.1021 22.0321 79.9037 22.2297 79.6544 22.3325C79.405 22.4353 79.1251 22.4348 78.8761 22.3312C78.4038 22.1342 77.8957 22.0374 77.384 22.047C74.8465 22.047 73.5473 24.077 72.0553 26.4521C70.5632 28.8272 68.655 31.8012 64.9503 31.8012Z" fill="#093F68"/>
<path d="M96.1615 120.705C86.6205 133.9 70.685 140.244 53.43 140.244C36.175 140.244 20.3105 133.9 10.8 120.705H96.1615Z" fill="white"/>
<path d="M53.43 141.259C34.6627 141.259 19.2042 134.154 9.90681 121.314C9.80507 121.167 9.74398 120.996 9.72972 120.817C9.71546 120.639 9.74854 120.46 9.8256 120.299C9.90746 120.111 10.0444 119.952 10.2183 119.843C10.3923 119.735 10.5951 119.681 10.8 119.69H96.1615C96.3489 119.691 96.5326 119.743 96.692 119.842C96.8515 119.94 96.9805 120.081 97.0649 120.248C97.1419 120.41 97.175 120.588 97.1607 120.767C97.1465 120.945 97.0854 121.116 96.9837 121.263C87.6863 134.174 72.2278 141.259 53.43 141.259ZM12.83 121.72C21.8432 133.027 36.175 139.219 53.4808 139.219C70.7865 139.219 85.1183 133.027 94.1315 121.72H12.83Z" fill="#093F68"/>
</svg>
